<?xml version="1.0" encoding="UTF-8"?>
<svg width="201px" height="23px" viewBox="0 0 201 23" version="1.1" xmlns="http://www.w3.org/2000/svg" xmlns:xlink="http://www.w3.org/1999/xlink">
    <!-- Generator: Sketch 45 (43475) - http://www.bohemiancoding.com/sketch -->
    <title>code-climate</title>
    <desc>Created with Sketch.</desc>
    <defs></defs>
    <g id="Page-1" stroke="none" stroke-width="1" fill="none" fill-rule="evenodd">
        <g id="code-climate-seeklogo.com" fill-rule="nonzero" fill="#0B2734">
            <g id="Group" transform="translate(49.159664, 4.265431)">
                <path d="M7.81512605,0.383888728 C9.9579832,0.383888728 11.5546218,1.06635758 12.9831933,2.38864097 C13.1932773,2.55925819 13.1932773,2.815184 13.0252101,2.98580122 L11.3445378,4.73462764 C11.1764706,4.90524486 10.9663866,4.90524486 10.7983193,4.73462764 C10,4.0095045 8.94957984,3.62561576 7.89915965,3.62561576 C5.46218488,3.62561576 3.69747899,5.67302233 3.69747899,8.10431759 C3.69747899,10.5356129 5.50420168,12.4977108 7.89915965,12.4977108 C8.90756301,12.4977108 10,12.1138221 10.7563025,11.4740075 C10.9243698,11.3460446 11.1764706,11.3460446 11.302521,11.5166618 L12.9831933,13.3081426 C13.1512605,13.4787598 13.1092437,13.7346856 12.9411765,13.9053028 C11.4705882,15.3555491 9.66386555,15.9953637 7.73109242,15.9953637 C3.44537815,15.9953637 7.10542736e-14,12.5403651 7.10542736e-14,8.18962618 C7.10542736e-14,3.83888728 3.52941177,0.383888728 7.81512605,0.383888728 L7.81512605,0.383888728 Z" id="Shape"></path>
                <path d="M22.1008404,0.383888728 C26.3865546,0.383888728 29.789916,3.88154158 29.789916,8.23228051 C29.789916,12.5830194 26.3865546,16.038018 22.1008404,16.038018 C17.8151261,16.038018 14.4117647,12.5830194 14.4117647,8.23228051 C14.4117647,3.88154158 17.8571429,0.383888728 22.1008404,0.383888728 L22.1008404,0.383888728 Z M22.1008404,12.5830194 C24.4537815,12.5830194 26.3865546,10.6209215 26.3865546,8.27493481 C26.3865546,5.88629384 24.4537815,3.92419589 22.1008404,3.92419589 C19.7478991,3.92419589 17.8571429,5.88629384 17.8571429,8.27493481 C17.8571429,10.6209215 19.789916,12.5830194 22.1008404,12.5830194 L22.1008404,12.5830194 Z" id="Shape"></path>
                <path d="M32.394958,1.02370328 C32.394958,0.810431759 32.5630252,0.597160242 32.7731093,0.597160242 L37.9831933,0.597160242 C42.1008402,0.597160242 45.5042016,4.0095045 45.5042016,8.18962618 C45.5042016,12.4124022 42.142857,15.8247465 37.9831933,15.8247465 L32.7731093,15.8247465 C32.5630252,15.8247465 32.394958,15.6114749 32.394958,15.3982034 L32.394958,1.02370328 L32.394958,1.02370328 Z M37.8151261,12.6256737 C40.2521008,12.6256737 41.9747898,10.7062301 41.9747898,8.23228051 C41.9747898,5.75833092 40.210084,3.83888728 37.8151261,3.83888728 L35.7563025,3.83888728 L35.7563025,12.6256737 L37.8151261,12.6256737 L37.8151261,12.6256737 Z" id="Shape"></path>
                <path d="M48.1512605,1.02370328 C48.1512605,0.810431759 48.3193277,0.597160242 48.5714285,0.597160242 L57.4369746,0.597160242 C57.6890758,0.597160242 57.857143,0.810431759 57.857143,1.02370328 L57.857143,3.41234425 C57.857143,3.62561576 57.6890758,3.83888728 57.4369746,3.83888728 L51.5126051,3.83888728 L51.5126051,6.52610839 L56.3865547,6.52610839 C56.5966387,6.52610839 56.8067227,6.7393799 56.8067227,6.9526514 L56.8067227,9.34129237 C56.8067227,9.59721821 56.5966387,9.76783542 56.3865547,9.76783542 L51.5126051,9.76783542 L51.5126051,12.7109823 L57.4369746,12.7109823 C57.6890758,12.7109823 57.857143,12.9242538 57.857143,13.1375254 L57.857143,15.5261663 C57.857143,15.7394378 57.6890758,15.9527093 57.4369746,15.9527093 L48.5714285,15.9527093 C48.3193277,15.9527093 48.1512605,15.7394378 48.1512605,15.5261663 L48.1512605,1.02370328 L48.1512605,1.02370328 Z" id="Shape"></path>
                <path d="M72.0588234,0.383888728 C74.2016809,0.383888728 75.7983191,1.06635758 77.2268906,2.38864097 C77.4369746,2.55925819 77.4369746,2.815184 77.2689074,2.98580122 L75.5882352,4.73462764 C75.420168,4.90524486 75.210084,4.90524486 75.0420168,4.73462764 C74.2436977,4.0095045 73.1932773,3.62561576 72.142857,3.62561576 C69.7058824,3.62561576 67.9411766,5.67302233 67.9411766,8.10431759 C67.9411766,10.5356129 69.7478992,12.4977108 72.142857,12.4977108 C73.1512605,12.4977108 74.2436977,12.1138221 75,11.4740075 C75.1680672,11.3460446 75.420168,11.3460446 75.5462184,11.5166618 L77.2268906,13.3081426 C77.3949578,13.4787598 77.352941,13.7346856 77.1848738,13.9053028 C75.7142855,15.3555491 73.9075629,15.9953637 71.9747898,15.9953637 C67.6890758,15.9953637 64.2436977,12.5403651 64.2436977,8.18962618 C64.2436977,3.83888728 67.7731094,0.383888728 72.0588234,0.383888728 L72.0588234,0.383888728 Z" id="Shape"></path>
                <path d="M79.789916,1.02370328 C79.789916,0.810431759 79.9579832,0.597160242 80.210084,0.597160242 L82.7731094,0.597160242 C82.9831934,0.597160242 83.1932773,0.810431759 83.1932773,1.02370328 L83.1932773,12.6256737 L88.2773109,12.6256737 C88.5294117,12.6256737 88.6974789,12.8389452 88.6974789,13.0522167 L88.6974789,15.4408577 C88.6974789,15.6541293 88.5294117,15.8674008 88.2773109,15.8674008 L80.2521008,15.8674008 C80,15.8674008 79.8319328,15.6541293 79.8319328,15.4408577 L79.8319328,1.02370328 L79.789916,1.02370328 Z" id="Shape"></path>
                <path d="M90.7563023,1.02370328 C90.7563023,0.810431759 90.9663867,0.597160242 91.1764707,0.597160242 L93.7394957,0.597160242 C93.9495797,0.597160242 94.1596637,0.810431759 94.1596637,1.02370328 L94.1596637,15.3982034 C94.1596637,15.6114749 93.9495797,15.8247465 93.7394957,15.8247465 L91.1764707,15.8247465 C90.9663867,15.8247465 90.7563023,15.6114749 90.7563023,15.3982034 L90.7563023,1.02370328 L90.7563023,1.02370328 Z" id="Shape"></path>
                <path d="M99.2857145,0.767777454 C99.3277312,0.554505941 99.4957984,0.42654303 99.6638656,0.42654303 L100,0.42654303 C100.12605,0.42654303 100.294118,0.511851636 100.378151,0.639814547 L105.336134,10.0237612 L105.378151,10.0237612 L110.336134,0.639814547 C110.420168,0.511851636 110.588235,0.42654303 110.714286,0.42654303 L111.05042,0.42654303 C111.218488,0.42654303 111.428571,0.597160242 111.428571,0.767777454 L113.865546,15.3555491 C113.907563,15.6541293 113.697479,15.8247465 113.445378,15.8247465 L110.92437,15.8247465 C110.714286,15.8247465 110.546218,15.6541293 110.504202,15.483512 L109.537815,8.78678644 L109.495798,8.78678644 L105.92437,15.7820921 C105.840336,15.9100551 105.672269,16.038018 105.546218,16.038018 L105.168067,16.038018 C105.042017,16.038018 104.87395,15.9100551 104.789916,15.7820921 L101.176471,8.74413215 L101.134454,8.74413215 L100.210084,15.4408577 C100.168067,15.6114749 100,15.7820921 99.789916,15.7820921 L97.2689074,15.7820921 C97.0168066,15.7820921 96.8067227,15.5688206 96.8487395,15.3128948 L99.2857145,0.767777454 L99.2857145,0.767777454 Z" id="Shape"></path>
                <path d="M114.663866,15.2702405 L121.344538,0.639814547 C121.428571,0.511851636 121.554622,0.383888728 121.722689,0.383888728 L121.932773,0.383888728 C122.10084,0.383888728 122.226891,0.511851636 122.310924,0.639814547 L128.991596,15.2702405 C129.117647,15.5688206 128.94958,15.8247465 128.613445,15.8247465 L126.218487,15.8247465 C125.840336,15.8247465 125.672269,15.6967836 125.462185,15.2702405 L124.705882,13.5640684 L118.907563,13.5640684 L118.151261,15.3128948 C118.02521,15.5688206 117.815126,15.8247465 117.394958,15.8247465 L115.042017,15.8247465 C114.705882,15.8247465 114.537815,15.5261663 114.663866,15.2702405 L114.663866,15.2702405 Z M123.445378,10.6209215 L121.806723,7.03796003 L121.764706,7.03796003 L120.168067,10.6209215 L123.445378,10.6209215 L123.445378,10.6209215 Z" id="Shape"></path>
                <path d="M131.932773,3.79623297 L128.865546,3.79623297 C128.613445,3.79623297 128.445378,3.58296146 128.445378,3.36968994 L128.445378,0.981048971 C128.445378,0.767777454 128.613445,0.554505941 128.865546,0.554505941 L138.361345,0.554505941 C138.613445,0.554505941 138.781512,0.767777454 138.781512,0.981048971 L138.781512,3.41234425 C138.781512,3.62561576 138.613445,3.83888728 138.361345,3.83888728 L135.294118,3.83888728 L135.294118,15.4408577 C135.294118,15.6541293 135.084034,15.8674008 134.87395,15.8674008 L132.310924,15.8674008 C132.10084,15.8674008 131.890756,15.6541293 131.890756,15.4408577 L131.890756,3.79623297 L131.932773,3.79623297 Z" id="Shape"></path>
                <path d="M140.882353,1.02370328 C140.882353,0.810431759 141.05042,0.597160242 141.302521,0.597160242 L150.168067,0.597160242 C150.420168,0.597160242 150.588235,0.810431759 150.588235,1.02370328 L150.588235,3.41234425 C150.588235,3.62561576 150.420168,3.83888728 150.168067,3.83888728 L144.243698,3.83888728 L144.243698,6.52610839 L149.117647,6.52610839 C149.327731,6.52610839 149.537815,6.7393799 149.537815,6.9526514 L149.537815,9.34129237 C149.537815,9.59721821 149.327731,9.76783542 149.117647,9.76783542 L144.243698,9.76783542 L144.243698,12.7109823 L150.168067,12.7109823 C150.420168,12.7109823 150.588235,12.9242538 150.588235,13.1375254 L150.588235,15.5261663 C150.588235,15.7394378 150.420168,15.9527093 150.168067,15.9527093 L141.302521,15.9527093 C141.05042,15.9527093 140.882353,15.7394378 140.882353,15.5261663 L140.882353,1.02370328 L140.882353,1.02370328 Z" id="Shape"></path>
            </g>
            <g id="Group">
                <polygon id="Shape" points="26.8067227 0 19.1596639 7.72042888 23.697479 12.3270936 26.8067227 9.17067516 35.5462185 18.0854245 40.0420168 13.4787598"></polygon>
                <polygon id="Shape" points="17.7731093 9.12802087 13.2773109 4.56401043 1.76470588 16.2512895 0 18.0427702 4.53781512 22.649435 6.30252102 20.8152999 12.1428571 14.9290061 13.2773109 13.7773399 17.7731093 18.3413503 22.0168067 22.649435 26.5546218 18.0427702 22.3109244 13.7346856"></polygon>
            </g>
        </g>
    </g>
</svg>
