<?xml version="1.0" encoding="UTF-8"?>
<svg width="200px" height="54px" viewBox="0 0 200 54" version="1.1" xmlns="http://www.w3.org/2000/svg" xmlns:xlink="http://www.w3.org/1999/xlink">
    <!-- Generator: Sketch 45 (43475) - http://www.bohemiancoding.com/sketch -->
    <title>github</title>
    <desc>Created with Sketch.</desc>
    <defs></defs>
    <g id="Page-1" stroke="none" stroke-width="1" fill="none" fill-rule="evenodd">
        <g id="Group" fill="#11110F">
            <path d="M38.8292818,23.1362449 L22.1071823,23.1362449 C21.6756906,23.1362449 21.3259669,23.4850408 21.3259669,23.9159388 L21.3259669,32.0699388 C21.3259669,32.4997347 21.6756906,32.8501837 22.1071823,32.8501837 L28.6303867,32.8501837 L28.6303867,42.9806939 C28.6303867,42.9806939 27.1657459,43.4788163 23.1160221,43.4788163 C18.338674,43.4788163 11.6646409,41.7381429 11.6646409,27.1008367 C11.6646409,12.4607755 18.6143646,10.5344082 25.138674,10.5344082 C30.7867403,10.5344082 33.219337,11.5256939 34.7679558,12.0039796 C35.2546961,12.1522041 35.7044199,11.6695102 35.7044199,11.2386122 L37.5696133,3.36067347 C37.5696133,3.159 37.501105,2.916 37.2712707,2.75179592 C36.6425414,2.30436735 32.8066298,0.163653061 23.1160221,0.163653061 C11.9530387,0.163653061 0.501657459,4.90022449 0.501657459,27.6716939 C0.501657459,50.4431633 13.6121547,53.8363469 24.660221,53.8363469 C33.8077348,53.8363469 39.3569061,49.9378776 39.3569061,49.9378776 C39.5856354,49.8116939 39.6104972,49.4932041 39.6104972,49.3471837 L39.6104972,23.9159388 C39.6104972,23.4850408 39.2607735,23.1362449 38.8292818,23.1362449" id="Fill-11"></path>
            <path d="M125.008287,2.8917551 C125.008287,2.45810204 124.663536,2.10820408 124.231492,2.10820408 L114.816022,2.10820408 C114.386188,2.10820408 114.036464,2.45810204 114.036464,2.8917551 C114.036464,2.89395918 114.039227,21.0396122 114.039227,21.0396122 L99.3624309,21.0396122 L99.3624309,2.8917551 C99.3624309,2.45810204 99.0165746,2.10820408 98.5856354,2.10820408 L89.1707182,2.10820408 C88.7425414,2.10820408 88.3928177,2.45810204 88.3928177,2.8917551 L88.3928177,52.0306531 C88.3928177,52.4643061 88.7425414,52.8169592 89.1707182,52.8169592 L98.5856354,52.8169592 C99.0165746,52.8169592 99.3624309,52.4643061 99.3624309,52.0306531 L99.3624309,31.0125306 L114.039227,31.0125306 C114.039227,31.0125306 114.01326,52.029 114.01326,52.0306531 C114.01326,52.4643061 114.362431,52.8169592 114.79337,52.8169592 L124.230939,52.8169592 C124.662431,52.8169592 125.007182,52.4643061 125.008287,52.0306531 L125.008287,2.8917551" id="Fill-13"></path>
            <path d="M56.5966851,9.34034694 C56.5966851,5.95873469 53.8790055,3.22622449 50.5254144,3.22622449 C47.1751381,3.22622449 44.4546961,5.95873469 44.4546961,9.34034694 C44.4546961,12.718102 47.1751381,15.4577755 50.5254144,15.4577755 C53.8790055,15.4577755 56.5966851,12.718102 56.5966851,9.34034694" id="Fill-14"></path>
            <path d="M55.9237569,41.6654082 C55.9237569,40.4057755 55.9237569,18.9826531 55.9237569,18.9826531 C55.9237569,18.5517551 55.5751381,18.1996531 55.1447514,18.1996531 L45.7585635,18.1996531 C45.3281768,18.1996531 44.9430939,18.6426735 44.9430939,19.0735714 C44.9430939,19.0735714 44.9430939,46.3678163 44.9430939,51.570551 C44.9430939,52.5254694 45.539779,52.8097959 46.3116022,52.8097959 C46.3116022,52.8097959 50.318232,52.8097959 54.7679558,52.8097959 C55.6961326,52.8097959 55.9237569,52.3552041 55.9237569,51.5551224 C55.9237569,49.8133469 55.9237569,42.9895102 55.9237569,41.6654082" id="Fill-15"></path>
            <path d="M160.79116,18.2740408 L151.448066,18.2740408 C151.01989,18.2740408 150.670718,18.6261429 150.670718,19.0592449 L150.670718,43.1537143 C150.670718,43.1537143 148.296685,44.8855714 144.927624,44.8855714 C141.559116,44.8855714 140.665193,43.360898 140.665193,40.0713061 C140.665193,36.7773061 140.665193,19.0592449 140.665193,19.0592449 C140.665193,18.6261429 140.317127,18.2740408 139.887845,18.2740408 L130.404972,18.2740408 C129.977348,18.2740408 129.626519,18.6261429 129.626519,19.0592449 C129.626519,19.0592449 129.626519,31.8903061 129.626519,41.662102 C129.626519,51.434449 135.087293,53.8253265 142.599448,53.8253265 C148.762983,53.8253265 153.732044,50.4293878 153.732044,50.4293878 C153.732044,50.4293878 153.968508,52.219102 154.075691,52.4312449 C154.18232,52.6428367 154.461326,52.8566327 154.762983,52.8566327 L160.79558,52.8296327 C161.223204,52.8296327 161.574033,52.4769796 161.574033,52.0455306 L161.570718,19.0592449 C161.570718,18.6261429 161.222099,18.2740408 160.79116,18.2740408" id="Fill-16"></path>
            <path d="M182.643094,44.8558163 C179.40221,44.7577347 177.203867,43.2909184 177.203867,43.2909184 L177.203867,27.729551 C177.203867,27.729551 179.372376,26.4037959 182.033149,26.1668571 C185.39779,25.866551 188.639779,26.8798776 188.639779,34.885102 C188.639779,43.3261837 187.176796,44.9924694 182.643094,44.8558163 Z M186.328177,17.1697959 C181.021547,17.1697959 177.412155,19.5314694 177.412155,19.5314694 L177.412155,2.8917551 C177.412155,2.45810204 177.064088,2.10820408 176.635359,2.10820408 L167.192818,2.10820408 C166.763536,2.10820408 166.414917,2.45810204 166.414917,2.8917551 L166.414917,52.0306531 C166.414917,52.4643061 166.763536,52.8169592 167.193923,52.8169592 C167.195028,52.8169592 173.743094,52.8169592 173.745304,52.8169592 C174.040331,52.8169592 174.263536,52.6654286 174.428729,52.3998367 C174.591713,52.135898 174.826519,50.1340408 174.826519,50.1340408 C174.826519,50.1340408 178.687293,53.782898 185.996133,53.782898 C194.577348,53.782898 199.498343,49.4419592 199.498343,34.2960612 C199.498343,19.1490612 191.638674,17.1697959 186.328177,17.1697959 L186.328177,17.1697959 Z" id="Fill-17"></path>
            <path d="M82.9845304,18.1952449 L75.921547,18.1952449 C75.921547,18.1952449 75.9110497,8.89126531 75.9110497,8.88961224 C75.9110497,8.53695918 75.7287293,8.36118367 75.320442,8.36118367 L65.6961326,8.36118367 C65.321547,8.36118367 65.1209945,8.52538776 65.1209945,8.88410204 L65.1209945,18.5005102 C65.1209945,18.5005102 60.2977901,19.6620612 59.9712707,19.7557347 C59.6469613,19.8494082 59.4077348,20.1480612 59.4077348,20.5045714 L59.4077348,26.5476122 C59.4077348,26.9823673 59.7558011,27.3328163 60.1861878,27.3328163 L65.1209945,27.3328163 C65.1209945,27.3328163 65.1209945,33.6535714 65.1209945,41.8709388 C65.1209945,52.6692857 72.7154696,53.73 77.839779,53.73 C80.181768,53.73 82.9828729,52.9800612 83.4453039,52.8097959 C83.7248619,52.7073061 83.8872928,52.4180204 83.8872928,52.1050408 L83.8955801,45.4575306 C83.8955801,45.0238776 83.5281768,44.6728776 83.1149171,44.6728776 C82.7027624,44.6728776 81.6502762,44.8398367 80.5662983,44.8398367 C77.0966851,44.8398367 75.921547,43.2308571 75.921547,41.148551 C75.921547,39.067898 75.9209945,27.3328163 75.9209945,27.3328163 L82.9845304,27.3328163 C83.4149171,27.3328163 83.7635359,26.9823673 83.7635359,26.5476122 L83.7635359,18.9782449 C83.7635359,18.5445918 83.4149171,18.1952449 82.9845304,18.1952449" id="Fill-18"></path>
        </g>
    </g>
</svg>