<?xml version="1.0" encoding="UTF-8"?>
<svg width="50px" height="49px" viewBox="0 0 50 49" version="1.1" xmlns="http://www.w3.org/2000/svg" xmlns:xlink="http://www.w3.org/1999/xlink">
    <!-- Generator: Sketch 45 (43475) - http://www.bohemiancoding.com/sketch -->
    <title>github-mark</title>
    <desc>Created with Sketch.</desc>
    <defs></defs>
    <g id="Page-1" stroke="none" stroke-width="1" fill="none" fill-rule="evenodd">
        <path d="M25.000207,0 C11.1947837,0 0,11.2461468 0,25.120069 C0,36.2189572 7.16332022,45.6351873 17.0966674,48.9568252 C18.3460981,49.1893607 18.8048023,48.4118852 18.8048023,47.7483896 C18.8048023,47.1493716 18.7816187,45.1705323 18.7708549,43.0714735 C11.8157731,44.5910656 10.3481681,40.1075824 10.3481681,40.1075824 C9.21092941,37.204009 7.57234527,36.4319414 7.57234527,36.4319414 C5.30407783,34.8728307 7.74332436,34.9048615 7.74332436,34.9048615 C10.2537777,35.081655 11.5756572,37.4935344 11.5756572,37.4935344 C13.8054233,41.3339053 17.4241358,40.2236421 18.8507555,39.5817777 C19.0751397,37.9586053 19.7230387,36.8495901 20.4380046,36.2227011 C14.885117,35.5874924 9.04781619,33.4335236 9.04781619,23.8080532 C9.04781619,21.065466 10.0244256,18.8245563 11.6236804,17.065357 C11.3641068,16.4322282 10.5083834,13.8776661 11.8658663,10.4175052 C11.8658663,10.4175052 13.9652246,9.74236204 18.7427034,12.9924506 C20.7369075,12.4358631 22.8755951,12.1567373 25.000207,12.1471697 C27.1248189,12.1567373 29.2651625,12.4358631 31.2630925,12.9924506 C36.0347754,9.74236204 38.1312358,10.4175052 38.1312358,10.4175052 C39.4920306,13.8776661 38.6358932,16.4322282 38.3763196,17.065357 C39.9793004,18.8245563 40.9492859,21.065466 40.9492859,23.8080532 C40.9492859,33.4564027 35.1008073,35.5808367 29.5338439,36.2027338 C30.4305527,36.9822892 31.2295591,38.511033 31.2295591,40.8546909 C31.2295591,44.2154314 31.2005796,46.92058 31.2005796,47.7483896 C31.2005796,48.4168771 31.6505899,49.2001763 32.9178224,48.9534973 C42.8457876,45.6281155 50,36.2152134 50,25.120069 C50,11.2461468 38.8068723,0 25.000207,0" id="Fill-51" fill="#FFFFFE"></path>
    </g>
</svg>