<?xml version="1.0" encoding="UTF-8"?>
<svg width="200px" height="63px" viewBox="0 0 200 63" version="1.1" xmlns="http://www.w3.org/2000/svg" xmlns:xlink="http://www.w3.org/1999/xlink">
    <!-- Generator: Sketch 45 (43475) - http://www.bohemiancoding.com/sketch -->
    <title>pusher</title>
    <desc>Created with Sketch.</desc>
    <defs>
        <polygon id="path-1" points="0 31.0043544 0 61.9910361 33.5882526 61.9910361 33.5882526 0.0176726124 0 0.0176726124"></polygon>
    </defs>
    <g id="Page-1" stroke="none" stroke-width="1" fill="none" fill-rule="evenodd">
        <g id="pusher_logo_dark">
            <path d="M38.9136905,5.42313253 C32.9017857,2.52481928 26.8154762,6.05060241 23.6160714,10.1291566 C21.6666667,12.7884337 20.5803571,17.2554217 20.7291667,23.6048193 C20.3422619,32.6881928 24.389881,46.0891566 24.389881,46.0891566 L32.6636905,43.893012 L28.139881,55.4115663 L30.1636905,56.8159036 L37.8125,38.1710843 L30.7886905,40.1281928 C30.7886905,40.1281928 27.1279762,32.1354217 28.5267857,21.3339759 C29.1517857,14.133012 32.8125,10.0544578 36.4136905,10.7566265 C40.0744048,11.8472289 41.6369048,17.9575904 38.3630952,22.5889157 C35.0892857,27.2053012 29.7767857,29.326747 29.7767857,29.326747 L30.0892857,32.1503614 C30.0892857,32.1503614 46.4732143,26.6674699 45.3869048,13.3561446 C45,10.2785542 42.7380952,7.15614458 38.9136905,5.42313253" id="Fill-1" fill="#20282E"></path>
            <g id="Group-5">
                <mask id="mask-2" fill="white">
                    <use xlink:href="#path-1"></use>
                </mask>
                <g id="Clip-3"></g>
                <path d="M13.1696429,48.9874699 C13.1696429,48.9874699 8.57142857,36.6173494 8.25892857,24.6207229 C7.94642857,20.7812048 7.70833333,8.48578313 12.3958333,6.36433735 C13.2589286,4.96 14.5833333,3.92915663 14.5833333,3.92915663 C14.5833333,3.92915663 2.72321429,2.98795181 3.34821429,24.8448193 C4.52380952,39.4857831 7.41071429,46.2236145 7.41071429,46.2236145 L0,48.2554217 L12.0089286,57.6525301 L12.8720238,55.6207229 L6.39880952,50.84 L13.1696429,48.9874699" id="Fill-2" fill="#20282E" mask="url(#mask-2)"></path>
                <path d="M23.3779762,47.8072289 C17.2172619,26.4284337 18.5416667,15.6120482 21.5029762,9.18795181 C24.8511905,1.98698795 29.6130952,3.94409639 29.6130952,3.94409639 C29.6130952,3.94409639 31.4880952,3.16722892 33.5863095,3.16722892 C33.735119,2.46506024 25.3125,-3.6453012 16.577381,3.31662651 C2.60416667,15.5373494 15.014881,49.9286747 15.014881,49.9286747 L9.47916667,51.4226506 L23.5267857,62 L30.4761905,45.7903614 L23.3779762,47.8072289" id="Fill-4" fill="#20282E" mask="url(#mask-2)"></path>
            </g>
            <path d="M29.8660714,20.706506 L29.5535714,23.4554217 C29.5535714,23.4554217 37.2767857,19.466506 35.639881,11.8621687 C34.7767857,11.9368675 32.9017857,12.9527711 32.6041667,13.266506 C33.2886905,18.5103614 29.8660714,20.706506 29.8660714,20.706506" id="Fill-6" fill="#20282E"></path>
            <path d="M63.7202381,29.7151807 L59.2708333,29.7151807 L59.2708333,19.1378313 L63.7202381,19.1378313 C67.1577381,19.1378313 70.1934524,20.5421687 70.1934524,24.4713253 C70.1934524,28.3855422 67.1577381,29.7151807 63.7202381,29.7151807 Z M63.7202381,14.9098795 L54.672619,14.9098795 L54.672619,46.2385542 L59.1964286,46.2385542 L59.1964286,33.8684337 L63.6458333,33.8684337 C69.8065476,33.8684337 74.6428571,31.0448193 74.6428571,24.3966265 C74.7321429,17.7185542 69.8809524,14.9098795 63.7202381,14.9098795 L63.7202381,14.9098795 Z" id="Fill-7" fill="#20282E"></path>
            <path d="M95.4761905,35.9749398 C95.4761905,39.739759 93.452381,42.6380723 89.5535714,42.6380723 C85.6547619,42.6380723 83.6309524,39.739759 83.6309524,35.9749398 L83.6309524,14.9098795 L79.1071429,14.9098795 L79.1071429,36.1392771 C79.1071429,39.186988 79.9702381,42.0853012 82.3065476,44.206747 C84.2559524,46.0144578 86.9047619,46.8660241 89.5684524,46.8660241 C92.2172619,46.8660241 94.8809524,45.9995181 96.8303571,44.206747 C99.1666667,42.1749398 100.029762,39.186988 100.029762,36.1392771 L100.029762,14.9098795 L95.5059524,14.9098795 L95.5059524,35.9749398 L95.4761905,35.9749398" id="Fill-8" fill="#20282E"></path>
            <path d="M109.83631,22.813012 C109.83631,20.5421687 111.71131,18.5103614 113.973214,18.5103614 C116.71131,18.5103614 118.348214,20.3180723 118.348214,23.0520482 L122.872024,23.0520482 C122.872024,17.7185542 119.122024,14.3571084 113.973214,14.3571084 C109.21131,14.3571084 105.238095,17.9575904 105.238095,22.9026506 C105.238095,29.013012 109.136905,30.4173494 113.973214,32.299759 C116.547619,33.3156627 118.973214,34.1074699 118.973214,37.3942169 C118.973214,40.4419277 117.098214,42.7277108 113.973214,42.7277108 C110.699405,42.7277108 108.89881,40.1431325 108.89881,37.0804819 L104.375,37.0804819 C104.375,42.7277108 108.27381,46.9556627 113.973214,46.9556627 C119.508929,46.9556627 123.571429,43.1161446 123.571429,37.4838554 C123.571429,25.4872289 109.83631,29.4761446 109.83631,22.813012" id="Fill-9" fill="#20282E"></path>
            <polyline id="Fill-10" fill="#20282E" points="145.729167 28.460241 132.857143 28.460241 132.857143 14.9098795 128.333333 14.9098795 128.333333 46.2385542 132.857143 46.2385542 132.857143 32.613494 145.729167 32.613494 145.729167 46.2385542 150.252976 46.2385542 150.252976 14.9098795 145.729167 14.9098795 145.729167 28.460241"></polyline>
            <polyline id="Fill-11" fill="#20282E" points="156.651786 46.2385542 173.422619 46.2385542 173.422619 42.0106024 161.175595 42.0106024 161.175595 32.5238554 173.422619 32.5238554 173.422619 28.2959036 161.175595 28.2959036 161.175595 19.1378313 173.422619 19.1378313 173.422619 14.9098795 156.651786 14.9098795 156.651786 46.2385542"></polyline>
            <path d="M183.571429,31.1195181 L183.571429,19.1378313 L188.407738,19.1378313 C191.994048,19.1378313 195.357143,21.020241 195.357143,25.0091566 C195.357143,30.0289157 190.833333,31.1195181 186.770833,31.1195181 L183.571429,31.1195181 Z M193.943452,33.9431325 C198.005952,32.5387952 199.866071,29.1624096 199.866071,24.9344578 C199.866071,22.1855422 199.002976,19.4515663 196.979167,17.4944578 C194.791667,15.2983133 191.592262,14.9098795 188.705357,14.9098795 L179.032738,14.9098795 L179.032738,46.2385542 L183.556548,46.2385542 L183.556548,31.746988 L183.630952,31.746988 L193.928571,46.2385542 L199.627976,46.2385542 L190.892857,34.5706024 C191.919643,34.5706024 193.005952,34.3315663 193.943452,33.9431325 L193.943452,33.9431325 Z" id="Fill-12" fill="#20282E"></path>
        </g>
    </g>
</svg>