<?xml version="1.0" encoding="UTF-8"?>
<svg width="200px" height="58px" viewBox="0 0 200 58" version="1.1" xmlns="http://www.w3.org/2000/svg" xmlns:xlink="http://www.w3.org/1999/xlink">
    <!-- Generator: Sketch 45 (43475) - http://www.bohemiancoding.com/sketch -->
    <title>slack</title>
    <desc>Created with Sketch.</desc>
    <defs></defs>
    <g id="Page-1" stroke="none" stroke-width="1" fill="none" fill-rule="evenodd">
        <g id="Slack_RGB" fill-rule="nonzero">
            <g id="Group" transform="translate(0.000000, 1.826772)">
                <path d="M36.2727273,3.6992126 C35.4090909,1.09606299 32.6363636,-0.319685039 30.0454545,0.502362205 C27.4545455,1.37007874 26.0454545,4.15590551 26.8636364,6.75905512 L39.6363636,46.2173228 C40.5,48.6377953 43.1363636,50.007874 45.6363636,49.2771654 C48.2727273,48.5007874 49.8636364,45.7149606 49,43.1574803 C49,43.0661417 36.2727273,3.6992126 36.2727273,3.6992126 Z" id="Shape" fill="#ECB32D"></path>
                <path d="M16.5,10.1385827 C15.6363636,7.53543307 12.8636364,6.11968504 10.2727273,6.94173228 C7.68181818,7.80944882 6.27272727,10.5952756 7.09090909,13.1984252 L19.8636364,52.6566929 C20.7272727,55.0771654 23.3636364,56.4472441 25.8636364,55.7165354 C28.5,54.9401575 30.0909091,52.1543307 29.2272727,49.5968504 C29.2272727,49.5055118 16.5,10.1385827 16.5,10.1385827 Z" id="Shape" fill="#63C1A0"></path>
                <path d="M52.3636364,36.3527559 C54.9545455,35.4850394 56.3636364,32.6992126 55.5454545,30.096063 C54.6818182,27.4929134 51.9090909,26.0771654 49.3181818,26.8992126 L10,39.7779528 C7.59090909,40.6456693 6.22727273,43.2944882 6.95454545,45.8062992 C7.72727273,48.4551181 10.5,50.0535433 13.0454545,49.1858268 C13.1363636,49.1858268 52.3636364,36.3527559 52.3636364,36.3527559 Z" id="Shape" fill="#E01A59"></path>
                <path d="M18.1818182,47.5417323 C20.7272727,46.719685 24.0454545,45.623622 27.5909091,44.4818898 C26.7727273,41.9244094 25.6818182,38.5905512 24.5454545,35.0283465 L15.1363636,38.088189 L18.1818182,47.5417323 Z" id="Shape" fill="#331433"></path>
                <path d="M38,41.0566929 C41.5454545,39.9149606 44.8636364,38.8188976 47.4090909,37.9968504 C46.5909091,35.4393701 45.5,32.1055118 44.3636364,28.5433071 L34.9545455,31.6031496 L38,41.0566929 Z" id="Shape" fill="#D62027"></path>
                <path d="M45.9090909,16.4866142 C48.5,15.6188976 49.9090909,12.8330709 49.0909091,10.2299213 C48.2272727,7.62677165 45.4545455,6.21102362 42.8636364,7.03307087 L3.59090909,19.8661417 C1.18181818,20.7338583 -0.181818182,23.3826772 0.545454545,25.8944882 C1.31818182,28.5433071 4.09090909,30.1417323 6.63636364,29.2740157 C6.72727273,29.2740157 45.9090909,16.4866142 45.9090909,16.4866142 Z" id="Shape" fill="#89D3DF"></path>
                <path d="M11.7727273,27.6299213 C14.3181818,26.807874 17.6363636,25.711811 21.1818182,24.5700787 C20.0454545,21.007874 18.9545455,17.6740157 18.1363636,15.1165354 L8.72727273,18.176378 L11.7727273,27.6299213 Z" id="Shape" fill="#258B74"></path>
                <path d="M31.5454545,21.1905512 C35.0909091,20.0488189 38.4090909,18.9527559 40.9545455,18.1307087 C39.8181818,14.5685039 38.7272727,11.2346457 37.9090909,8.67716535 L28.5,11.7370079 L31.5454545,21.1905512 Z" id="Shape" fill="#819C3C"></path>
            </g>
            <path d="M92.1818182,15.8929134 C93.9090909,16.6692913 94.0454545,17.2173228 92.6818182,19.8204724 C91.2727273,22.4692913 90.9545455,22.6519685 89.2272727,21.9669291 C87.0909091,21.0535433 84.3181818,20.3685039 82.5454545,20.3685039 C79.6363636,20.3685039 77.7272727,21.4188976 77.7272727,23.0173228 C77.7272727,28.2692913 94.3636364,25.4377953 94.3636364,36.5811024 C94.3636364,42.1984252 89.5454545,45.9433071 82.3636364,45.9433071 C78.5909091,45.9433071 73.9090909,44.6645669 70.6818182,43.0204724 C69.0909091,42.1984252 68.9545455,41.7417323 70.3636364,39.0472441 C71.5454545,36.7181102 71.9545455,36.4440945 73.6818182,37.1748031 C76.4090909,38.3622047 79.9090909,39.3212598 82.2272727,39.3212598 C84.8636364,39.3212598 86.6363636,38.2251969 86.6363636,36.6724409 C86.6363636,31.6031496 69.6818182,34.023622 69.6818182,23.2 C69.6818182,17.4456693 74.4545455,13.6094488 81.5909091,13.6094488 C85.0454545,13.5637795 89.2727273,14.5685039 92.1818182,15.8929134 Z" id="Shape" fill="#2D333A"></path>
            <path d="M105.636364,2.6488189 L105.636364,44.2992126 C105.636364,44.9385827 104.954545,45.5779528 104.045455,45.5779528 L99.6818182,45.5779528 C98.7272727,45.5779528 98.0909091,44.8929134 98.0909091,44.2992126 L98.0909091,2.6488189 C98.0909091,0.593700787 98.6818182,0.411023622 101.863636,0.411023622 C105.5,0.365354331 105.636364,0.639370079 105.636364,2.6488189 Z" id="Shape" fill="#2D333A"></path>
            <path d="M136.636364,26.0314961 L136.636364,43.9795276 C136.636364,44.9385827 135.954545,45.5779528 135.045455,45.5779528 L130.727273,45.5779528 C129.727273,45.5779528 129.045455,44.8472441 129.136364,43.8425197 L129.181818,41.9244094 C126.863636,44.5275591 123.5,45.8976378 120.136364,45.8976378 C113.636364,45.8976378 109.272727,42.1070866 109.272727,36.4897638 C109.272727,30.5070866 114.181818,26.4425197 121.590909,26.4425197 C124.409091,26.4425197 126.954545,26.9448819 129.045455,27.8125984 L129.045455,25.7574803 C129.045455,22.4692913 126.454545,20.5055118 122.045455,20.5055118 C120,20.5055118 117.454545,21.3275591 115.454545,22.5149606 C113.909091,23.3826772 113.545455,23.3370079 111.863636,20.8251969 C110.227273,18.3133858 110.272727,17.8566929 111.863636,16.8062992 C114.909091,14.8425197 119,13.5637795 122.772727,13.5637795 C131.272727,13.5637795 136.636364,18.176378 136.636364,26.0314961 Z M116.545455,36.4440945 C116.545455,38.5905512 118.363636,40.0062992 121.045455,40.0062992 C124.318182,40.0062992 127.318182,38.407874 129.045455,35.7133858 L129.045455,32.9275591 C127.318182,32.2425197 125.181818,31.8771654 123.318182,31.8771654 C119.227273,31.8771654 116.545455,33.7952756 116.545455,36.4440945 Z" id="Shape" fill="#2D333A"></path>
            <path d="M166.181818,15.9385827 C167.772727,16.8519685 167.818182,17.3543307 166.090909,20.0488189 C164.454545,22.6062992 164.181818,22.7433071 162.409091,21.8755906 C161.090909,21.1905512 158.954545,20.5968504 157.227273,20.5968504 C151.772727,20.5968504 148.136364,24.2047244 148.136364,29.6850394 C148.136364,35.3480315 151.772727,39.184252 157.227273,39.184252 C159.136364,39.184252 161.5,38.4535433 163.045455,37.5858268 C164.636364,36.6724409 164.954545,36.7181102 166.636364,39.184252 C168.136364,41.4677165 168.136364,42.015748 166.772727,42.9748031 C164.318182,44.6645669 160.5,45.9433071 157.090909,45.9433071 C147,45.9433071 140.227273,39.4582677 140.227273,29.6850394 C140.227273,20.0031496 147,13.5637795 157.181818,13.5637795 C160.272727,13.5637795 163.909091,14.6141732 166.181818,15.9385827 Z" id="Shape" fill="#2D333A"></path>
            <path d="M199.181818,41.6503937 C200.454545,43.2488189 199.954545,43.8425197 196.772727,44.984252 C193.545455,46.1716535 193.090909,46.080315 191.954545,44.6188976 L182.909091,32.5165354 L178.863636,36.4440945 L178.863636,44.2992126 C178.863636,44.9385827 178.181818,45.5779528 177.272727,45.5779528 L172.909091,45.5779528 C171.954545,45.5779528 171.318182,44.8929134 171.318182,44.2992126 L171.318182,2.6488189 C171.318182,0.593700787 171.909091,0.411023622 175.090909,0.411023622 C178.772727,0.411023622 178.863636,0.68503937 178.863636,2.6488189 L178.863636,26.3055118 L191.227273,14.3858268 C192.590909,13.1070866 193.363636,13.1984252 195.772727,14.7968504 C198.454545,16.5322835 198.636364,17.0346457 197.363636,18.2677165 L188.181818,27.3102362 L199.181818,41.6503937 Z" id="Shape" fill="#2D333A"></path>
        </g>
    </g>
</svg>