<?xml version="1.0" encoding="UTF-8"?>
<svg width="200px" height="62px" viewBox="0 0 200 62" version="1.1" xmlns="http://www.w3.org/2000/svg" xmlns:xlink="http://www.w3.org/1999/xlink">
    <!-- Generator: Sketch 45 (43475) - http://www.bohemiancoding.com/sketch -->
    <title>Untitled 3</title>
    <desc>Created with Sketch.</desc>
    <defs></defs>
    <g id="Page-1" stroke="none" stroke-width="1" fill="none" fill-rule="evenodd">
        <g id="TravisCI-Full-Color">
            <path d="M15.0068536,27.05742 C15.0068536,27.05742 5.23364486,33.90284 4.85109034,36.51087 L5.5847352,36.36083 C5.5847352,36.36083 17.2884735,28.64121 26.5660436,27.69974 L26.7760125,26.52825 L15.0068536,27.05742" id="Fill-1" fill="#B93346"></path>
            <path d="M30.3492212,26.07906 L22.6507788,31.51243 L23.0666667,31.84475 C23.3806854,31.59303 36.7417445,27.53234 36.7417445,27.53234 L39.558567,25.77495 C37.6685358,26.009 30.3492212,26.07906 30.3492212,26.07906" id="Fill-2" fill="#B93346"></path>
            <path d="M37.0401869,32.65075 C42.5065421,32.65075 50.7009346,27.32309 50.7009346,27.32309 L48.0520249,26.8212 C47.9208723,26.95171 43.7806854,26.67674 43.7806854,26.67674 L41.8152648,26.13362 L37.1193146,31.45787 L36.7370717,32.38167 C37.0747664,32.24558 37.0401869,32.65075 37.0401869,32.65075" id="Fill-3" fill="#B93346"></path>
            <path d="M13.9626168,52.83113 C13.9249221,52.81408 13.8869159,52.79672 13.8492212,52.77936 C13.5803738,52.54841 13.3604361,52.35962 13.2168224,52.23655 L13.9626168,52.83113 Z M54.8785047,49.64154 L53.1897196,50.1146 L45.3872274,49.94689 L40.505919,46.16954 L34.6065421,47.63832 L27.782866,47.05087 L23.9619938,51.2058 L16.7919003,53.33674 L13.211838,52.23252 C13.0978193,52.13456 13.0317757,52.07783 13.0317757,52.07783 L14.6386293,55.99313 C14.6386293,55.99313 18.2781931,59.87619 20.311215,60.33282 C22.3439252,60.78976 26.0165109,60.30027 28.771028,59.87588 C31.5252336,59.4518 33.7221184,58.47282 34.6074766,56.87446 C35.4925234,55.27517 35.623676,54.81854 35.623676,54.81854 C35.623676,54.81854 38.247352,58.50568 40.5096573,58.93007 C42.7719626,59.35415 49.4937695,57.06976 49.4937695,57.06976 C49.4937695,57.06976 53.5928349,55.96058 54.3140187,54.55752 C55.0352025,53.15446 56.9373832,48.55406 56.9373832,48.55406 L54.8785047,49.64154 L54.8785047,49.64154 Z" id="Fill-4" fill="#B93346"></path>
            <path d="M61.5071651,21.9046 C61.4900312,21.69473 61.4666667,21.48517 61.4411215,21.27685 C61.4227414,21.12898 61.3993769,20.9746 61.3738318,20.83169 C60.8105919,20.36018 60.1707165,19.94044 59.5043614,19.55945 C58.7825545,19.13971 58.0267913,18.76368 57.2557632,18.41462 C56.4900312,18.05502 55.7037383,17.72952 54.9124611,17.41239 C54.517757,17.25274 54.1196262,17.09836 53.7196262,16.95049 C53.3211838,16.7958 52.9186916,16.65165 52.5149533,16.50564 C53.3619938,16.64514 54.2003115,16.83641 55.0323988,17.04969 C55.5738318,17.18888 56.1121495,17.34481 56.646729,17.51128 C52.8426791,7.61794 43.7476636,1.1749 33.817134,1.1749 C23.8853583,1.1749 14.7909657,7.61794 10.9878505,17.51128 C11.5227414,17.34481 12.0610592,17.18888 12.6012461,17.04969 C13.4342679,16.83641 14.2728972,16.64514 15.1196262,16.50564 C14.7146417,16.65165 14.3133956,16.7958 13.9133956,16.95049 C13.5155763,17.09836 13.117134,17.25274 12.7205607,17.41239 C11.929595,17.72952 11.1451713,18.05502 10.3775701,18.41462 C9.60841121,18.76368 8.85233645,19.13971 8.13021807,19.55945 C7.46386293,19.94044 6.82461059,20.36018 6.25919003,20.83169 C6.23582555,20.9746 6.21214953,21.12898 6.19345794,21.27685 C6.1682243,21.48517 6.14454829,21.69473 6.12741433,21.9046 C6.09065421,22.32589 6.07570093,22.74904 6.07196262,23.17374 C6.0635514,24.02159 6.12087227,24.86944 6.22897196,25.70861 C6.34548287,26.54995 6.50062305,27.38571 6.72990654,28.19357 C6.84299065,28.59843 6.97133956,28.9974 7.11931464,29.38366 C7.194081,29.57648 7.27476636,29.76651 7.35919003,29.95127 C7.40124611,30.04334 7.44517134,30.13386 7.48909657,30.22128 L7.54330218,30.32389 C7.60560748,30.35551 7.67133956,30.38775 7.73364486,30.41782 L8.11183801,30.59762 C8.32242991,30.69279 8.61433022,30.83074 8.85576324,30.93831 L8.89439252,30.90297 L8.19252336,28.24224 C8.3411215,28.20163 9.6741433,27.85939 11.9716511,27.42446 C11.7859813,27.38943 11.5990654,27.34882 11.4149533,27.30542 C10.8919003,27.17584 10.3757009,27.01836 9.87632399,26.81655 C9.62834891,26.71239 9.38380062,26.59862 9.15109034,26.46811 C8.91806854,26.33481 8.68878505,26.18415 8.51152648,25.98389 C11.0352025,26.80353 16.2501558,26.43215 20.8859813,25.95568 C25.1258567,25.52075 29.3753894,25.23865 33.646729,25.23059 C37.9186916,25.23865 42.1700935,25.52075 46.4077882,25.95568 C51.0454829,26.43215 56.2604361,26.80353 58.7841121,25.98389 C58.6068536,26.18415 58.3778816,26.33481 58.1448598,26.46811 C57.9121495,26.59862 57.6676012,26.71239 57.4196262,26.81655 C56.9196262,27.01836 56.4037383,27.17584 55.8809969,27.30542 C55.8034268,27.32402 55.7252336,27.34076 55.6476636,27.3575 C58.1666667,27.8225 59.6330218,28.20008 59.7897196,28.24224 L59.1183801,30.77711 C59.253271,30.71666 59.3897196,30.65776 59.5233645,30.59762 L59.9009346,30.41782 C59.9635514,30.38775 60.0274143,30.35551 60.0915888,30.32389 L60.1436137,30.22128 C60.1897196,30.13386 60.2336449,30.04334 60.2753894,29.95127 C60.3601246,29.76651 60.4411215,29.57648 60.5152648,29.38366 C60.6635514,28.9974 60.7922118,28.59843 60.9049844,28.19357 C61.1345794,27.38571 61.2897196,26.54995 61.405919,25.70861 C61.5143302,24.86944 61.5713396,24.02159 61.5632399,23.17374 C61.5595016,22.74904 61.5442368,22.32589 61.5071651,21.9046" id="Fill-5" fill="#F4EEAA"></path>
            <path d="M36.6806854,57.08898 C36.3464174,57.1392 36.0121495,57.18105 35.6800623,57.20616 C35.4657321,57.21639 35.2392523,57.23809 35.0336449,57.23809 L34.9576324,57.23995 C35.2158879,56.66583 35.4115265,56.22098 35.5601246,55.8837 C35.8623053,56.22098 36.2470405,56.63917 36.6806854,57.08898" id="Fill-6" fill="#E1C8A5"></path>
            <path d="M37.4071651,57.82585 C38.4448598,58.84854 39.7305296,59.43382 41.1461059,59.53798 C38.7688474,60.49867 36.5283489,60.86974 34.8024922,60.98506 C33.0819315,61.09976 31.3376947,60.89795 29.6283489,60.4314 C29.7716511,60.40598 29.876324,60.38769 30.0028037,60.3725 C30.1433022,60.35545 33.2087227,59.95772 34.5903427,57.91327 L34.7199377,57.91637 L35.05919,57.91327 C35.288785,57.91327 35.4975078,57.89467 35.7168224,57.88599 C36.2383178,57.84104 36.7479751,57.76726 37.2489097,57.66651 C37.3015576,57.71983 37.3535826,57.77222 37.4071651,57.82585" id="Fill-7" fill="#E1C8A5"></path>
            <path d="M40.3479751,27.21335 C40.2485981,27.34231 40.1373832,27.4846 40.0190031,27.63278 C39.411838,28.39662 38.5697819,29.37343 37.571028,30.32916 C36.4102804,30.2932 35.217134,30.27367 33.9890966,30.27367 C31.9601246,30.27367 30.0146417,30.32699 28.1672897,30.41627 C30.7772586,29.3384 33.9137072,28.28564 37.3096573,27.65293 C38.3015576,27.46631 39.3168224,27.3172 40.3479751,27.21335" id="Fill-8" fill="#5F655D"></path>
            <path d="M25.0700935,28.37616 C24.1386293,29.02778 23.0859813,29.85889 22.0654206,30.86763 C19.4520249,31.12772 17.1725857,31.4433 15.2919003,31.74586 C18.1834891,30.42278 21.4834891,29.20572 25.0700935,28.37616" id="Fill-9" fill="#5F655D"></path>
            <path d="M56.9993769,33.74474 L55.9364486,41.14537 L50.8445483,44.69425 L37.5641745,43.19199 L35.565109,36.64076 C35.517757,36.48142 35.3825545,36.36424 35.217134,36.33727 C34.7249221,36.25822 34.2897196,36.21792 33.9271028,36.21792 C33.5626168,36.21792 33.128972,36.25822 32.6345794,36.33727 C32.4707165,36.36424 32.3361371,36.48142 32.2872274,36.64076 L30.3370717,43.03234 L17.1308411,45.95657 L11.8975078,42.3088 L10.8663551,34.0039 C11.0909657,33.87773 11.3190031,33.75187 11.5498442,33.62632 C11.8738318,33.55688 12.2383178,33.48341 12.641433,33.40622 L13.6130841,41.24271 C13.6283489,41.36485 13.6959502,41.47428 13.7971963,41.54465 L17.3971963,44.05503 C17.4713396,44.10494 17.55919,44.13191 17.6470405,44.13191 C17.6788162,44.13191 17.7093458,44.12881 17.7433022,44.12168 L28.6009346,41.71763 C28.6380062,41.70926 28.6753894,41.69593 28.7090343,41.67888 C28.8099688,41.62556 28.8897196,41.53318 28.9233645,41.42065 L30.8785047,35.01419 C31.4028037,34.87996 32.7464174,34.56779 33.9271028,34.56779 C35.1046729,34.56779 36.4489097,34.87996 36.9738318,35.01419 L38.928972,41.42065 C38.9797508,41.58681 39.1249221,41.70585 39.2984424,41.72631 L50.1563863,42.9536 C50.2613707,42.96507 50.3691589,42.93779 50.4551402,42.87796 L54.0573209,40.37006 C54.1548287,40.30124 54.2205607,40.19305 54.2373832,40.07432 L55.1993769,33.37925 C55.9211838,33.51689 56.5252336,33.64275 56.9993769,33.74474" id="Fill-10" fill="#5F655D"></path>
            <path d="M58.3404984,29.10342 L57.405919,32.63215 C55.494704,32.21272 51.2950156,31.38967 45.5797508,30.8357 C47.4470405,30.04334 49.3485981,29.04948 51.0859813,27.80731 C54.4869159,28.28564 56.9841121,28.79776 58.3404984,29.10342" id="Fill-11" fill="#5F655D"></path>
            <path d="M36.2753894,31.47027 C35.7523364,31.89187 35.2009346,32.28619 34.6271028,32.63029 L32.7121495,33.78039 C31.511215,33.92609 30.4685358,34.22183 30.4096573,34.23888 C30.3744548,34.2488 30.34081,34.26368 30.3099688,34.28259 C30.217134,34.33622 30.1464174,34.42488 30.1124611,34.5309 L28.1626168,40.92527 L17.7398754,43.23198 L14.4570093,40.94387 L13.5018692,33.24471 C15.3660436,32.90402 17.8595016,32.5097 20.8542056,32.17583 C20.5333333,32.55837 20.2214953,32.95951 19.9261682,33.3808 L18.1429907,35.92745 L20.7395639,34.20478 C20.7781931,34.17812 22.4314642,33.0956 25.1361371,31.77934 C27.8314642,31.57784 30.805919,31.44826 33.9890966,31.44826 C34.765109,31.44826 35.5264798,31.45725 36.2753894,31.47027 Z M20.0510903,40.14314 C20.7915888,39.7451 21.6283489,39.804 22.9373832,39.80586 C23.0778816,39.80896 23.2227414,39.80741 23.3741433,39.804 C23.5028037,39.80245 23.6323988,39.80059 23.7691589,39.79718 C25.1186916,39.78416 26.2404984,39.91157 26.2205607,37.80295 C26.2003115,35.69464 25.2588785,33.99026 23.9109034,34.0039 C22.5613707,34.01537 21.2557632,35.743 21.3364486,37.85007 C21.3582555,38.39877 21.4395639,38.79495 21.5694704,39.08046 C20.3937695,39.37403 20.0694704,40.09757 20.0510903,40.14314 L20.0510903,40.14314 Z" id="Fill-12" fill="#E0C59B"></path>
            <path d="M54.3404984,33.21991 L53.4006231,39.76587 L50.0906542,42.07196 L39.6816199,40.8952 L37.7398754,34.5309 C37.6959502,34.38985 37.5847352,34.28104 37.4429907,34.23888 C37.3785047,34.22028 36.0897196,33.85448 34.7233645,33.73668 L34.9728972,33.72025 C35.188785,33.70475 38.7791277,33.26672 43.0657321,31.79608 C47.8133956,32.15878 51.6900312,32.73941 54.3404984,33.21991 Z M47.6884735,39.27855 C47.6750779,39.22833 47.3915888,38.38079 46.1364486,38.52928 C46.2813084,38.21587 46.3454829,37.79303 46.3,37.21364 C46.1342679,35.10998 44.9046729,33.43815 43.5566978,33.48465 C42.2087227,33.53239 41.3448598,35.27614 41.4193146,37.38476 C41.4934579,39.49183 42.6255452,39.47695 43.9735202,39.42983 C45.7853583,39.39604 46.7806854,38.84207 47.6884735,39.27855 L47.6884735,39.27855 Z" id="Fill-13" fill="#E0C59B"></path>
            <path d="M36.2753894,31.47027 C35.7523364,31.89187 35.2009346,32.28619 34.6271028,32.63029 L32.7121495,33.78039 C31.511215,33.92609 30.4685358,34.22183 30.4096573,34.23888 C30.3744548,34.2488 30.34081,34.26368 30.3099688,34.28259 C30.217134,34.33622 30.1464174,34.42488 30.1124611,34.5309 L28.1626168,40.92527 L17.7398754,43.23198 L14.4570093,40.94387 L13.5018692,33.24471 C15.3660436,32.90402 17.8595016,32.5097 20.8542056,32.17583 C20.5333333,32.55837 20.2214953,32.95951 19.9261682,33.3808 L18.1429907,35.92745 L20.7395639,34.20478 C20.7781931,34.17812 22.4314642,33.0956 25.1361371,31.77934 C27.8314642,31.57784 30.805919,31.44826 33.9890966,31.44826 C34.765109,31.44826 35.5264798,31.45725 36.2753894,31.47027 Z M20.0510903,40.14314 C20.7915888,39.7451 21.6283489,39.804 22.9373832,39.80586 C23.0778816,39.80896 23.2227414,39.80741 23.3741433,39.804 C23.5028037,39.80245 23.6323988,39.80059 23.7691589,39.79718 C25.1186916,39.78416 26.2404984,39.91157 26.2205607,37.80295 C26.2003115,35.69464 25.2588785,33.99026 23.9109034,34.0039 C22.5613707,34.01537 21.2557632,35.743 21.3364486,37.85007 C21.3582555,38.39877 21.4395639,38.79495 21.5694704,39.08046 C20.3937695,39.37403 20.0694704,40.09757 20.0510903,40.14314 L20.0510903,40.14314 Z" id="Fill-14" fill="#BFAC91"></path>
            <path d="M54.3404984,33.21991 L53.4006231,39.76587 L50.0906542,42.07196 L39.6816199,40.8952 L37.7398754,34.5309 C37.6959502,34.38985 37.5847352,34.28104 37.4429907,34.23888 C37.3785047,34.22028 36.0897196,33.85448 34.7233645,33.73668 L34.9728972,33.72025 C35.188785,33.70475 38.7791277,33.26672 43.0657321,31.79608 C47.8133956,32.15878 51.6900312,32.73941 54.3404984,33.21991 Z M47.6884735,39.27855 C47.6750779,39.22833 47.3915888,38.38079 46.1364486,38.52928 C46.2813084,38.21587 46.3454829,37.79303 46.3,37.21364 C46.1342679,35.10998 44.9046729,33.43815 43.5566978,33.48465 C42.2087227,33.53239 41.3448598,35.27614 41.4193146,37.38476 C41.4934579,39.49183 42.6255452,39.47695 43.9735202,39.42983 C45.7853583,39.39604 46.7806854,38.84207 47.6884735,39.27855 L47.6884735,39.27855 Z" id="Fill-15" fill="#BFAC91"></path>
            <path d="M58.8841121,36.09919 C59.0436137,36.23001 59.1700935,36.56884 59.0274143,38.1486 C58.8520249,40.08269 58.034891,43.47719 57.528972,44.02434 C56.9707165,44.13191 55.7996885,44.0045 55.0859813,43.83834 C55.2093458,43.35102 55.2445483,43.11759 55.3442368,42.61942 L56.5928349,41.74987 C56.6922118,41.68105 56.7579439,41.57317 56.7747664,41.45599 L57.647352,35.37193 C58.176947,35.65744 58.7218069,35.9662 58.8841121,36.09919" id="Fill-16" fill="#E1C8A5"></path>
            <path d="M12.8573209,44.03953 C12.9199377,44.25963 12.9853583,44.47942 13.053271,44.69611 C12.3816199,44.89234 11.0133956,45.08051 10.3943925,44.97325 C9.88161994,44.45896 8.92492212,40.92062 8.71557632,39.04171 C8.54517134,37.5193 8.66479751,37.19008 8.82024922,37.06236 C9.00093458,36.91139 9.67725857,36.52854 10.2629283,36.21637 L11.0538941,42.60733 C11.0691589,42.73009 11.134891,42.8389 11.2380062,42.90958 L12.8573209,44.03953" id="Fill-17" fill="#E1C8A5"></path>
            <path d="M38.1127726,44.12881 L38.0654206,44.53677 C38.0654206,44.53677 36.6264798,45.8645 34.3102804,46.16148 C31.9937695,46.45846 30.1732087,45.04207 30.1732087,45.04207 C30.2492212,45.28821 30.3573209,45.84404 30.8819315,46.31927 C30.2647975,46.24549 29.5981308,46.1962 28.8993769,46.1962 C28.646729,46.1962 28.3915888,46.20364 28.1451713,46.21542 C26.7196262,46.28951 24.7140187,48.43471 23.3037383,50.59541 C22.611838,50.81365 20.4492212,51.49658 17.9457944,52.23221 C15.6090343,49.01038 14.4598131,45.71849 14.3436137,45.37749 L14.3451713,45.37594 C14.2981308,45.24512 14.2507788,45.11368 14.2068536,44.97945 L14.8077882,45.39764 L14.8077882,45.39919 L16.2922118,46.43335 L16.7884735,46.77745 C16.8626168,46.82984 16.9501558,46.8565 17.0380062,46.8565 C17.0700935,46.8565 17.1021807,46.85309 17.1339564,46.84689 L30.7760125,43.8247 C30.928972,43.79122 31.0523364,43.67683 31.0978193,43.52772 L33.0433022,37.15474 C33.3791277,37.10948 33.6738318,37.08592 33.9271028,37.08592 C34.1785047,37.08592 34.4753894,37.10948 34.811215,37.15474 L36.8130841,43.71713 C36.8641745,43.88329 37.0090343,44.0045 37.1809969,44.02248 L38.1127726,44.12881" id="Fill-18" fill="#E1C8A5"></path>
            <path d="M53.6844237,43.77634 L54.1249221,43.46851 C54.0517134,43.77293 53.9725857,44.07487 53.8900312,44.37371 C53.2778816,46.3264 52.5554517,48.05341 51.752648,49.57923 C51.5753894,49.59163 51.3878505,49.59845 51.1875389,49.59845 C50.5679128,49.59845 49.935514,49.54606 49.235514,49.48251 C48.0205607,49.37153 46.0925234,49.15174 45.4831776,49.08137 C44.9588785,48.66504 43.1638629,47.24586 41.670405,46.07623 C41.611838,46.0288 41.5613707,45.98509 41.511838,45.94479 C41.2489097,45.72345 40.9501558,45.47204 40.3445483,45.47204 C39.7943925,45.47204 38.9912773,45.67106 37.0498442,46.25572 C38.058567,45.50552 38.0654206,44.53677 38.0654206,44.53677 L38.1127726,44.12881 L50.9109034,45.57558 C51.0149533,45.58736 51.123053,45.5607 51.2109034,45.50025 L52.4965732,44.60373 L53.6844237,43.77634" id="Fill-19" fill="#E1C8A5"></path>
            <path d="M44.2654206,16.98242 C44.3040498,18.11547 44.2757009,20.1686 43.7454829,22.09091 C43.7239875,22.165 43.7271028,22.24033 43.7454829,22.31101 C43.071028,22.24033 42.3959502,22.18019 41.7211838,22.12625 C42.4785047,20.54649 42.6439252,18.86443 42.6797508,18.27171 C43.2613707,17.86065 43.8404984,17.36713 44.2654206,16.98242" id="Fill-20" fill="#E7D193"></path>
            <path d="M24.9554517,18.27171 C24.9906542,18.86443 25.1557632,20.54308 25.9121495,22.12129 C25.2370717,22.17492 24.5626168,22.23692 23.8890966,22.3076 C23.9074766,22.23878 23.9093458,22.165 23.8890966,22.09091 C23.3595016,20.17232 23.3323988,18.11733 23.3694704,16.98242 C23.794704,17.36713 24.3716511,17.86065 24.9554517,18.27171" id="Fill-21" fill="#E7D193"></path>
            <path d="M43.4520249,36.19126 C43.8317757,36.18289 44.1352025,35.87041 44.1286604,35.49283 C44.1221184,35.11339 43.8084112,34.81114 43.4264798,34.81982 C43.0454829,34.82602 42.7433022,35.1385 42.7504673,35.51794 C42.7573209,35.89552 43.071028,36.19808 43.4520249,36.19126 Z M47.6884735,39.27855 C46.7806854,38.84207 45.7853583,39.39604 43.9735202,39.42983 C42.6255452,39.47695 41.4934579,39.49183 41.4193146,37.38476 C41.3448598,35.27614 42.2087227,33.53239 43.5566978,33.48465 C44.9046729,33.43815 46.1342679,35.10998 46.3,37.21364 C46.3454829,37.79303 46.2813084,38.21587 46.1364486,38.52928 C47.3915888,38.38079 47.6750779,39.22833 47.6884735,39.27855 L47.6884735,39.27855 Z" id="Fill-22" fill="#292C2D"></path>
            <path d="M44.1286604,35.49283 C44.1352025,35.87041 43.8317757,36.18289 43.4520249,36.19126 C43.071028,36.19808 42.7573209,35.89552 42.7504673,35.51794 C42.7433022,35.1385 43.0454829,34.82602 43.4264798,34.81982 C43.8084112,34.81114 44.1221184,35.11339 44.1286604,35.49283" id="Fill-23" fill="#EEF7F8"></path>
            <path d="M24.1370717,36.69966 C24.5165109,36.69005 24.817134,36.37385 24.8068536,35.99627 C24.7965732,35.61683 24.4797508,35.31799 24.1003115,35.32822 C23.7186916,35.33814 23.4180685,35.65372 23.4283489,36.03161 C23.4386293,36.41136 23.7557632,36.70989 24.1370717,36.69966 Z M26.2205607,37.80295 C26.2404984,39.91157 25.1186916,39.78416 23.7691589,39.79718 C23.6323988,39.80059 23.5028037,39.80245 23.3741433,39.804 C23.2227414,39.80741 23.0778816,39.80896 22.9373832,39.80586 C21.6283489,39.804 20.7915888,39.7451 20.0510903,40.14314 C20.0694704,40.09757 20.3937695,39.37403 21.5694704,39.08046 C21.4395639,38.79495 21.3582555,38.39877 21.3364486,37.85007 C21.2557632,35.743 22.5613707,34.01537 23.9109034,34.0039 C25.2588785,33.99026 26.2003115,35.69464 26.2205607,37.80295 L26.2205607,37.80295 Z" id="Fill-24" fill="#292C2D"></path>
            <path d="M24.8068536,35.99627 C24.817134,36.37385 24.5165109,36.69005 24.1370717,36.69966 C23.7557632,36.70989 23.4386293,36.41136 23.4283489,36.03161 C23.4180685,35.65372 23.7186916,35.33814 24.1003115,35.32822 C24.4797508,35.31799 24.7965732,35.61683 24.8068536,35.99627" id="Fill-25" fill="#EEF7F8"></path>
            <path d="M15.553271,23.7088 L15.3965732,23.4143 L15.3903427,22.64364 L15.7987539,18.04789 L22.8847352,16.3401 L23.3258567,22.26916 C22.982243,21.8054 22.4679128,20.75636 22.1492212,19.31672 C21.9788162,18.54792 21.4308411,18.32906 20.8003115,18.32906 C20.2501558,18.32906 19.6373832,18.49553 19.1579439,18.6093 C18.1277259,18.85327 16.7791277,19.19489 16.558567,19.7315 C16.1305296,20.77248 15.9211838,23.48901 15.9211838,23.48901 L15.553271,23.7088" id="Fill-26" fill="#EAD698"></path>
            <path d="M52.1457944,23.7088 L51.7775701,23.48901 C51.7775701,23.48901 51.5685358,20.77248 51.1404984,19.7315 C50.9196262,19.19489 49.571028,18.85327 48.541433,18.6093 C48.0616822,18.49553 47.4485981,18.32906 46.8987539,18.32906 C46.2679128,18.32906 45.7199377,18.54792 45.5495327,19.31672 C45.2311526,20.75636 44.7158879,21.8054 44.3725857,22.26916 L44.8143302,16.3401 L51.9006231,18.04789 L52.2482866,21.96381 L52.2358255,23.53985 L52.1457944,23.7088" id="Fill-27" fill="#EAD698"></path>
            <path d="M41.0582555,22.64457 L26.7732087,22.61822 L26.0330218,20.95972 L25.5037383,18.11671 L24.3395639,17.1957 L24.3130841,10.57503 L25.9523364,5.75019 C25.9523364,5.75019 26.2221184,19.96121 29.5595016,19.96121 C32.8968847,19.96121 33.5647975,19.96121 33.5647975,19.96121 L34.2320872,19.96121 C34.2320872,19.96121 34.8993769,19.96121 38.2367601,19.96121 C41.5741433,19.96121 41.7616822,5.74399 41.7616822,5.74399 L43.9320872,13.71378 L42.3548287,18.19576 L42.2750779,19.45932 L41.7193146,21.45975 L41.0582555,22.64457" id="Fill-28" fill="#EAD799"></path>
            <path d="M55.5847352,25.18223 C55.5847352,25.18223 55.3831776,25.08427 54.7788162,24.79039 C54.8242991,24.8124 55.5847352,25.18223 55.5847352,25.18223 M54.7788162,24.79039 C54.7788162,24.79008 54.7788162,24.79008 54.7788162,24.79008 L54.7788162,24.79039 M54.7788162,24.79008 C54.7781931,24.78977 54.7775701,24.78946 54.7766355,24.78915 C54.7766355,24.78915 54.7775701,24.78946 54.7788162,24.79008 M54.7766355,24.78915 L52.2317757,24.02562 L52.2358255,23.53985 L52.3663551,23.29402 L52.2482866,21.96381 L52.2722741,19.00052 C52.2722741,19.00052 52.9588785,23.90472 54.7766355,24.78915" id="Fill-29" fill="#EAD799"></path>
            <path d="M12.0482866,25.18223 L12.8563863,24.78915 C12.2504673,25.08396 12.0482866,25.18223 12.0482866,25.18223 M12.8563863,24.78915 C14.6741433,23.90472 15.3610592,19.00052 15.3610592,19.00052 L15.3903427,22.64364 L15.3327103,23.29402 L15.3965732,23.4143 L15.4015576,24.02562 L12.8563863,24.78915" id="Fill-31" fill="#EAD799"></path>
            <path d="M23.1062305,22.3913 L23.0757009,22.31442 C22.4554517,20.06816 22.482243,17.71278 22.5380062,16.62654 L16.094704,18.44965 C15.6613707,21.2567 15.8638629,23.32006 15.9074766,23.69919 C16.4423676,23.55473 16.9788162,23.42205 17.5190031,23.29805 C18.4093458,23.10151 19.3068536,22.93721 20.2062305,22.78593 C21.1071651,22.63651 22.0115265,22.52243 22.9155763,22.41331 C22.9797508,22.40494 23.0420561,22.39998 23.1062305,22.3913 Z M25.9121495,22.12129 C25.1557632,20.54308 24.9906542,18.86443 24.9554517,18.27171 C24.3716511,17.86065 23.794704,17.36713 23.3694704,16.98242 C23.3323988,18.11733 23.3595016,20.17232 23.8890966,22.09091 C23.9093458,22.165 23.9074766,22.23878 23.8890966,22.3076 C24.5626168,22.23692 25.2370717,22.17492 25.9121495,22.12129 Z M43.7454829,22.09091 C44.2757009,20.1686 44.3040498,18.11547 44.2654206,16.98242 C43.8404984,17.36713 43.2613707,17.86065 42.6797508,18.27171 C42.6439252,18.86443 42.4788162,20.54649 41.7208723,22.12594 C42.3959502,22.17988 43.071028,22.24033 43.7454829,22.31101 C43.7271028,22.24033 43.7239875,22.165 43.7454829,22.09091 Z M51.7258567,23.70074 C51.7694704,23.32347 51.9738318,21.26011 51.5398754,18.44965 L45.0950156,16.62654 C45.152648,17.71278 45.1781931,20.06816 44.5588785,22.31442 L44.5271028,22.39502 C44.5909657,22.40153 44.6551402,22.4068 44.7174455,22.41517 C46.5292835,22.62163 48.3327103,22.91024 50.1161994,23.2996 C50.6542056,23.42391 51.1925234,23.55659 51.7258567,23.70074 Z M52.7613707,24.0033 C53.6267913,24.28509 54.4971963,24.58393 55.2856698,25.04211 C54.8635514,24.87626 54.4283489,24.75691 53.9894081,24.64934 C53.552648,24.53867 53.1124611,24.44474 52.6700935,24.36073 C51.7844237,24.19457 50.8956386,24.05383 50.0012461,23.94595 C49.1087227,23.83032 48.2149533,23.73267 47.317134,23.65703 C46.4196262,23.5817 45.5239875,23.50637 44.6246106,23.45398 C41.029595,23.23419 37.4246106,23.17901 33.817134,23.17529 C30.2105919,23.17715 26.605296,23.24442 23.0099688,23.45584 C22.1109034,23.50792 21.2149533,23.58356 20.3174455,23.6592 C19.4202492,23.73422 18.5242991,23.83032 17.6333333,23.9475 C16.7392523,24.05538 15.8501558,24.19643 14.964486,24.36228 C14.5227414,24.44474 14.0819315,24.54053 13.6436137,24.64934 C13.2068536,24.75691 12.7694704,24.87626 12.3479751,25.04211 C13.1358255,24.58393 14.0062305,24.28354 14.8735202,24.00144 C14.9461059,23.97788 15.0202492,23.95773 15.0943925,23.93448 L15.0806854,23.87899 C15.0657321,23.7801 14.7451713,21.42255 15.3034268,18.05161 C15.3305296,17.89041 15.4470405,17.75959 15.6056075,17.71588 L16.5218069,17.4561 C16.7205607,10.38469 19.6476636,7.05901 19.7389408,6.95671 C17.1239875,11.14357 17.1476636,16.10946 17.1931464,17.26607 L22.8869159,15.65593 L22.9003115,15.65283 L22.971028,15.64291 L22.994704,15.64105 C23.023676,15.6395 23.0557632,15.64291 23.088162,15.64942 L23.1046729,15.65469 L23.1753894,15.67794 L23.2021807,15.69313 L23.2579439,15.72816 L23.2732087,15.73839 L23.2834891,15.74831 L23.3003115,15.76195 C23.3037383,15.76722 23.4554517,15.91633 23.6965732,16.13984 C23.6395639,14.27271 23.7286604,8.91746 26.2915888,4.47888 C26.2373832,4.6345 24.2043614,10.55116 24.9049844,17.18206 C25.1323988,17.36372 25.3716511,17.54135 25.6049844,17.69759 C25.717757,17.77478 25.7869159,17.90219 25.7884735,18.03828 C25.7906542,18.06029 25.8389408,20.17387 26.7772586,21.97187 C26.7906542,21.99853 26.8009346,22.02705 26.8096573,22.05588 C29.1426791,21.89778 31.4825545,21.83423 33.817134,21.83268 C36.152648,21.83423 38.4909657,21.90119 40.823676,22.06084 C40.8320872,22.03046 40.8423676,22.00039 40.8576324,21.97187 C41.7953271,20.17387 41.8445483,18.06029 41.8445483,18.03828 C41.847352,17.90219 41.9168224,17.77478 42.0302181,17.69759 C42.2629283,17.54135 42.4990654,17.36372 42.7286604,17.18206 C43.4302181,10.55116 41.3968847,4.6345 41.3433022,4.47888 C43.9040498,8.91746 43.9956386,14.27271 43.9383178,16.13984 C44.1775701,15.91633 44.329595,15.76722 44.3342679,15.76195 L44.3510903,15.74831 L44.3613707,15.73839 L44.3766355,15.72816 L44.4320872,15.69127 L44.4576324,15.67794 L44.5317757,15.65283 L44.5470405,15.64942 C44.5772586,15.64291 44.6099688,15.6395 44.6398754,15.64105 L44.6616822,15.64291 L44.7342679,15.65283 L44.7476636,15.65593 L50.441433,17.26607 C50.4875389,16.10946 50.5109034,11.14357 47.8962617,6.95671 C47.9869159,7.05901 50.9140187,10.38469 51.1115265,17.4561 L52.0292835,17.71588 C52.1859813,17.75959 52.3043614,17.89041 52.3314642,18.05161 C52.8897196,21.42255 52.5676012,23.7801 52.5538941,23.87899 L52.5404984,23.93603 C52.6146417,23.95773 52.6869159,23.97943 52.7613707,24.0033 L52.7613707,24.0033 Z" id="Fill-33" fill="#292C2D"></path>
            <path d="M39.4691589,10.12026 L39.4691589,7.06087 L28.405919,7.06087 L28.405919,10.12026 L29.9183801,10.12026 L29.9183801,8.56592 L33.0479751,8.56592 L33.0479751,18.01224 L31.7601246,18.01224 L31.7601246,19.76436 L36.1149533,19.76436 L36.1149533,18.01224 L34.8271028,18.01224 L34.8271028,8.56592 L37.9563863,8.56592 L37.9563863,10.12026 L39.4691589,10.12026 Z M27.2697819,5.92999 L40.6080997,5.92999 L40.6080997,11.25114 L36.8174455,11.25114 L36.8174455,9.69649 L35.9632399,9.69649 L35.9632399,16.87888 L37.2538941,16.87888 L37.2538941,20.89524 L30.623676,20.89524 L30.623676,16.87888 L31.9090343,16.87888 L31.9090343,9.69649 L31.0573209,9.69649 L31.0573209,11.25114 L27.2697819,11.25114 L27.2697819,5.92999 L27.2697819,5.92999 Z" id="Fill-34" fill="#292C2D"></path>
            <polyline id="Fill-35" fill="#B93346" points="39.4691589 7.06087 39.4691589 10.12026 37.9563863 10.12026 37.9563863 8.56592 34.8271028 8.56592 34.8271028 18.01224 36.1149533 18.01224 36.1149533 19.76436 31.7601246 19.76436 31.7601246 18.01224 33.0479751 18.01224 33.0479751 8.56592 29.9183801 8.56592 29.9183801 10.12026 28.405919 10.12026 28.405919 7.06087 39.4691589 7.06087"></polyline>
            <path d="M9.64049844,29.10342 C10.1931464,28.9788 10.9395639,28.82008 11.8551402,28.644 C11.2925234,29.02561 10.6271028,29.50456 9.90062305,30.08085 L9.64049844,29.10342" id="Fill-36" fill="#5F655D"></path>
            <path d="M29.8722741,43.68706 C29.8722741,43.68706 30.0267913,44.67627 28.635514,45.09942 C27.2448598,45.52288 18.4333333,48.13587 17.4286604,47.99451 C16.4239875,47.85346 13.8735202,46.15838 13.8735202,46.15838 L13.2551402,43.96947 L17.028972,46.3109 L29.8722741,43.68706" id="Fill-37" fill="#BFAC91"></path>
            <path d="M37.7657321,43.49548 C37.7657321,43.49548 37.6545171,44.48996 39.0632399,44.85328 C40.4713396,45.21629 49.3884735,47.44581 50.3859813,47.26105 C51.3834891,47.07629 53.8573209,45.27302 53.8573209,45.27302 L54.3797508,43.059 L50.9109034,45.11802 L37.7657321,43.49548" id="Fill-38" fill="#BFAC91"></path>
            <path d="M8.92367601,41.86674 C8.92367601,41.86674 10.1445483,44.29683 12.1165109,43.45549 L13.5252336,43.96947 L13.3844237,44.99774 L10.4261682,45.37129 L9.62803738,44.90412 L8.92367601,41.86674" id="Fill-39" fill="#BFAC91"></path>
            <g id="Group-44">
                <path d="M58.905919,41.19962 C58.905919,41.19962 56.9105919,43.73573 54.9386293,42.89501 L54.3043614,43.30204 L54.4451713,44.32969 L57.4034268,44.70386 L58.2012461,44.23638 L58.905919,41.19962" id="Fill-40" fill="#BFAC91"></path>
                <path d="M28.0404984,60.29035 C28.0404984,60.29035 35.2738318,63.91952 43.4638629,58.98153 L40.8336449,58.80297 C40.8336449,58.80297 35.094704,61.06318 30.5514019,59.81419 L28.0404984,60.29035" id="Fill-42" fill="#BFAC91"></path>
                <path d="M11.8551402,28.644 C10.9395639,28.82008 10.1931464,28.9788 9.64049844,29.10342 L9.90062305,30.08085 C10.6271028,29.50456 11.2925234,29.02561 11.8551402,28.644 Z M13.053271,44.69611 C12.9847352,44.47942 12.9199377,44.25932 12.8582555,44.03922 L11.2370717,42.9102 C11.1345794,42.8389 11.0694704,42.73071 11.053271,42.60733 L10.2632399,36.21637 C9.67757009,36.52854 9.00155763,36.9117 8.82087227,37.06236 C8.66479751,37.19008 8.54610592,37.51868 8.7152648,39.0414 C8.92492212,40.91969 9.88099688,44.45865 10.394704,44.97325 C11.0127726,45.08144 12.3819315,44.89234 13.053271,44.69611 Z M22.7426791,27.75709 C23.9442368,27.42229 25.1834891,27.12934 26.4529595,26.88351 C24.6317757,26.94985 22.8093458,27.03386 20.9900312,27.13616 C19.9327103,27.19413 18.8809969,27.26543 17.828972,27.34479 C17.3018692,27.38509 16.7781931,27.42694 16.2563863,27.48398 C16.1068536,27.49824 15.9604361,27.51436 15.8109034,27.53389 C14.4386293,28.35105 9.17538941,31.63891 5.5623053,35.93799 C9.07320872,33.50945 15.1900312,29.86075 22.7426791,27.75709 Z M22.064486,30.86701 C23.0853583,29.85889 24.1389408,29.02716 25.0691589,28.37709 C21.4838006,29.20541 18.1834891,30.42185 15.2922118,31.74524 C17.1738318,31.44299 19.4517134,31.12772 22.064486,30.86701 Z M35.8255452,26.75889 C35.1,26.74742 34.3732087,26.74091 33.6479751,26.73936 L33.6464174,26.73936 C32.5816199,26.74091 31.5146417,26.75238 30.4461059,26.77346 L28.4772586,27.70191 L28.4498442,27.71679 C28.1538941,27.86063 25.5685358,29.1586 23.1358255,31.47399 C25.3165109,30.33319 28.5211838,28.84302 32.2922118,27.68765 C33.4218069,27.34324 34.6056075,27.0258 35.8255452,26.75889 Z M34.6271028,32.6306 C35.2009346,32.28619 35.7520249,31.89125 36.2753894,31.47058 C35.5258567,31.45787 34.765109,31.44795 33.9897196,31.44795 C30.805919,31.44795 27.8317757,31.57753 25.1361371,31.77965 C22.4317757,33.09498 20.7781931,34.17719 20.7395639,34.20478 L18.1426791,35.92838 L19.9261682,33.38142 C20.2205607,32.95889 20.5327103,32.55775 20.8548287,32.17614 C17.8598131,32.50908 15.3657321,32.90402 13.5021807,33.24564 L14.4563863,40.94387 L17.7395639,43.23198 L28.1619938,40.9262 L30.1130841,34.53028 C30.1457944,34.42488 30.217134,34.33622 30.3099688,34.28259 C30.34081,34.26306 30.3732087,34.2488 30.4090343,34.23888 C30.4691589,34.22276 31.5115265,33.92671 32.7130841,33.78101 L34.6271028,32.6306 Z M35.6806854,57.20678 C36.0121495,57.18074 36.3454829,57.13858 36.6806854,57.08867 C36.2464174,56.63917 35.8626168,56.22129 35.5601246,55.88308 C35.4121495,56.22129 35.2158879,56.66614 34.9570093,57.23933 L35.0336449,57.23933 C35.2398754,57.23933 35.4657321,57.21701 35.6806854,57.20678 Z M41.1454829,59.53829 C39.7311526,59.43475 38.4448598,58.84916 37.4071651,57.82647 C37.3535826,57.77191 37.3015576,57.71952 37.2495327,57.66651 C36.747352,57.76664 36.2383178,57.84104 35.7161994,57.88661 C35.4968847,57.89467 35.288785,57.91358 35.0595016,57.91358 L34.7193146,57.91699 L34.5897196,57.91358 C33.2090343,59.95741 30.1426791,60.35545 30.0024922,60.37343 C29.8757009,60.38769 29.7716511,60.40567 29.6283489,60.4314 C31.3376947,60.89764 33.0819315,61.09976 34.8024922,60.98475 C36.5274143,60.87005 38.7685358,60.49774 41.1454829,59.53829 Z M40.0190031,27.63247 C40.1373832,27.48522 40.2479751,27.34324 40.3470405,27.21366 C39.3161994,27.3172 38.3015576,27.466 37.3096573,27.65355 C33.9130841,28.28626 30.776324,29.33809 28.1666667,30.41565 C30.0155763,30.32637 31.9601246,30.27336 33.9897196,30.27336 C35.217134,30.27336 36.4105919,30.29413 37.5713396,30.32823 C38.5697819,29.37343 39.4121495,28.39662 40.0190031,27.63247 Z M49.4021807,27.34324 L49.3925234,27.33952 C48.3647975,27.26388 47.3373832,27.19413 46.3062305,27.13616 C44.8757009,27.05494 43.4445483,26.98705 42.0137072,26.92722 C41.9305296,27.05029 41.7616822,27.29271 41.5193146,27.62286 C40.74081,28.67128 39.1959502,30.59514 37.2152648,32.22636 C40.0190031,31.72633 44.8816199,30.4885 49.0884735,27.56799 C49.194081,27.49328 49.2981308,27.41578 49.4021807,27.34324 Z M54.1242991,43.4682 L53.6834891,43.77541 L52.4965732,44.60373 L51.2102804,45.50025 C51.1227414,45.56039 51.0155763,45.58798 50.9109034,45.57651 L38.1130841,44.1285 L37.1816199,44.0231 C37.0090343,44.00357 36.8641745,43.8836 36.8137072,43.71744 L34.8105919,37.15474 C34.4760125,37.10948 34.1778816,37.08654 33.9280374,37.08654 C33.6738318,37.08654 33.3778816,37.10948 33.0433022,37.15474 L31.0984424,43.52803 C31.0529595,43.67683 30.929595,43.79029 30.776324,43.82377 L17.1342679,46.84689 C17.1021807,46.85309 17.0697819,46.85619 17.0386293,46.85619 C16.9507788,46.85619 16.8629283,46.83015 16.788162,46.77714 L16.2922118,46.43397 L14.8077882,45.40012 L14.8077882,45.39671 L14.2077882,44.97945 C14.2501558,45.11368 14.2987539,45.24512 14.3461059,45.37594 L14.3442368,45.37749 C14.4598131,45.7188 15.6093458,49.00976 17.9461059,52.23128 C20.4482866,51.49658 22.6124611,50.81396 23.3034268,50.59541 C24.7130841,48.43378 26.7196262,46.28982 28.1457944,46.21542 C28.3909657,46.20395 28.646729,46.1962 28.9003115,46.1962 C29.5978193,46.1962 30.2647975,46.24642 30.8819315,46.31927 C30.3570093,45.84497 30.2498442,45.28821 30.1732087,45.04238 C30.1732087,45.04238 31.9928349,46.45815 34.3096573,46.16241 C36.6271028,45.8645 38.0657321,44.53584 38.0657321,44.53584 C38.0657321,44.53584 38.05919,45.50552 37.0495327,46.25572 C38.9912773,45.67168 39.7943925,45.47111 40.3439252,45.47111 C40.9504673,45.47111 41.2495327,45.72345 41.511215,45.94572 C41.5616822,45.98602 41.6121495,46.02942 41.670405,46.07654 C43.1632399,47.24617 44.9582555,48.66535 45.4838006,49.08137 C46.0919003,49.15236 48.0199377,49.3706 49.234891,49.48251 C49.935514,49.54513 50.5679128,49.59876 51.1875389,49.59876 C51.3875389,49.59876 51.5747664,49.5907 51.7517134,49.57923 C52.5554517,48.05403 53.2772586,46.32547 53.8900312,44.37433 C53.9725857,44.07487 54.0529595,43.77231 54.1242991,43.4682 Z M53.4006231,39.76618 L54.3404984,33.21929 C51.6900312,32.7391 47.8140187,32.15816 43.0657321,31.79577 C38.7797508,33.26672 35.1897196,33.70475 34.9732087,33.71932 L34.723053,33.73699 C36.0903427,33.85386 37.3781931,34.21966 37.4429907,34.23888 C37.5847352,34.28104 37.6953271,34.38923 37.7392523,34.53028 L39.682243,40.89551 L50.0900312,42.07196 L53.4006231,39.76618 Z M55.935514,41.14506 L56.9987539,33.74505 C56.5258567,33.64337 55.9211838,33.51751 55.1987539,33.37987 L54.2380062,40.07494 C54.2202492,40.19305 54.1548287,40.30155 54.0573209,40.37006 L50.4542056,42.87765 C50.3694704,42.93748 50.2610592,42.96507 50.1566978,42.9536 L39.2984424,41.72569 C39.1246106,41.70616 38.9797508,41.5865 38.928972,41.42158 L36.9735202,35.01419 C36.4495327,34.87965 35.1049844,34.56748 33.9280374,34.56748 C32.7457944,34.56748 31.4024922,34.87965 30.8788162,35.01419 L28.9227414,41.42158 C28.8884735,41.53287 28.8105919,41.62556 28.7084112,41.67857 C28.6757009,41.69655 28.6386293,41.70926 28.6009346,41.71763 L17.7426791,44.12168 C17.7084112,44.1285 17.6794393,44.13191 17.646729,44.13191 C17.5588785,44.13191 17.4713396,44.10587 17.3978193,44.05379 L13.7962617,41.54434 C13.6956386,41.47459 13.6286604,41.36454 13.6127726,41.24178 L12.6420561,33.4056 C12.2386293,33.48341 11.8747664,33.55781 11.5492212,33.62539 C11.3183801,33.75187 11.0906542,33.87804 10.8663551,34.00452 L11.8971963,42.30787 L17.1314642,45.95657 L30.3376947,43.03296 L32.2872274,36.642 C32.3361371,36.48142 32.4707165,36.36331 32.6352025,36.33727 C33.129595,36.25822 33.5616822,36.21792 33.9280374,36.21792 C34.2903427,36.21792 34.7242991,36.25822 35.217134,36.33727 C35.3831776,36.36331 35.517757,36.48142 35.565109,36.642 L37.5647975,43.19168 L50.8445483,44.69425 L55.935514,41.14506 Z M57.405296,32.63215 L58.3404984,29.10342 C56.9844237,28.79776 54.4869159,28.28626 51.0853583,27.80731 C49.3485981,29.0501 47.4476636,30.04334 45.5797508,30.83601 C51.2950156,31.38967 55.494704,32.21303 57.405296,32.63215 Z M59.0264798,38.14767 C59.1697819,36.56884 59.0448598,36.22908 58.8834891,36.0995 C58.7224299,35.96527 58.1778816,35.65806 57.6476636,35.37162 L56.7747664,41.45506 C56.758567,41.57317 56.6915888,41.68043 56.5928349,41.74956 L55.3436137,42.6188 C55.2445483,43.11666 55.2090343,43.35164 55.0869159,43.83865 C55.8006231,44.00357 56.9713396,44.13191 57.528972,44.02465 C58.034891,43.47781 58.8523364,40.083 59.0264798,38.14767 Z M62.7937695,23.13623 C62.8398754,24.04701 62.8152648,24.95934 62.7124611,25.86578 C62.6168224,26.77036 62.4442368,27.66657 62.2040498,28.55503 C62.0785047,28.99678 61.9339564,29.43357 61.7632399,29.86695 C61.676947,30.08364 61.5844237,30.29909 61.4834891,30.51423 C61.4330218,30.62087 61.3794393,30.72627 61.3193146,30.83477 L61.2299065,30.99473 C61.1971963,31.05301 61.1713396,31.09672 61.1208723,31.17422 L61.0283489,31.31713 L60.8834891,31.39091 C60.728972,31.47058 60.6024922,31.5301 60.4619938,31.5952 L60.0545171,31.7781 C59.7809969,31.89435 59.5065421,32.0044 59.2314642,32.11104 C59.0395639,32.18575 58.870405,32.25395 58.7096573,32.32184 L58.2560748,34.03676 C58.2448598,34.03366 58.1080997,33.99925 57.8529595,33.93818 L57.8283489,34.11736 C58.328972,34.37776 59.3124611,34.90569 59.6476636,35.18097 C60.3224299,35.73587 60.3697819,36.61441 60.2202492,38.25648 C60.1436137,39.09968 59.8626168,40.73989 59.4722741,42.24649 C58.7987539,44.84026 58.4411215,45.14468 57.9794393,45.26248 C57.7451713,45.32231 57.3844237,45.38214 57.0345794,45.38214 C56.3227414,45.38214 55.353271,45.40167 54.7012461,45.24512 C54.5339564,45.83505 54.0557632,47.3742 53.1093458,49.2962 C53.1566978,49.27326 53.2037383,49.25435 53.2461059,49.23172 C54.4133956,48.62164 56.6576324,47.64886 56.7517134,47.60701 L58.5242991,46.84038 L57.6168224,48.53918 C57.5956386,48.57607 55.6492212,52.21857 54.4573209,54.5972 C53.2738318,56.95289 51.0542056,57.46594 49.7255452,57.76974 C49.5255452,57.81686 49.3358255,57.86057 49.1813084,57.90273 C48.2280374,58.16933 46.2981308,58.62751 44.5959502,59.03485 L44.5342679,59.04818 C43.4869159,59.69236 42.3439252,60.26679 41.0934579,60.73923 C36.517757,62.46376 31.6953271,62.36673 27.3227414,60.76806 C26.6124611,60.85889 25.6788162,60.97018 24.435514,61.11092 C23.8950156,61.17075 23.3700935,61.20175 22.8694704,61.20175 C18.7037383,61.20175 16.4956386,59.09654 14.8841121,57.03535 C13.1588785,54.82815 11.0485981,51.55145 10.95919,51.41443 L9.7364486,49.51475 L11.8043614,50.4401 C12.794704,50.88371 15.7380062,52.23934 16.5800623,52.62777 C16.6482866,52.60855 16.7149533,52.58902 16.7816199,52.56949 C15.3819315,50.5827 14.2339564,48.31722 13.4224299,45.80808 C12.7327103,46.01485 11.671028,46.17512 10.8451713,46.17512 C10.5429907,46.17512 10.2728972,46.15249 10.065109,46.10382 C9.60311526,45.99873 9.07601246,45.55574 8.35919003,43.04257 C7.94299065,41.5834 7.63239875,39.99093 7.54143302,39.17098 C7.3623053,37.57045 7.39501558,36.71299 8.06323988,36.15933 C8.46635514,35.82453 9.82554517,35.11432 10.1068536,34.96893 L10.046729,34.4751 C5.72803738,37.00067 3.13987539,39.23205 3.08785047,39.27762 L0,41.97462 L2.2,38.52215 C3.94143302,35.78578 5.95264798,33.57393 7.80311526,31.87017 C7.72647975,31.83948 7.65514019,31.80879 7.58006231,31.7781 L7.17196262,31.5952 C7.03208723,31.5301 6.90529595,31.47058 6.75109034,31.39091 L6.60623053,31.31713 L6.51370717,31.17422 C6.46168224,31.09672 6.43894081,31.05301 6.4046729,30.99473 L6.31370717,30.83477 C6.25669782,30.72627 6.20124611,30.62087 6.15109034,30.51423 C6.04859813,30.29909 5.95607477,30.08364 5.87165109,29.86695 C5.70062305,29.43357 5.55607477,28.99678 5.4305296,28.55503 C5.18847352,27.66657 5.01775701,26.77036 4.92180685,25.86578 C4.82087227,24.95934 4.79501558,24.04701 4.84049844,23.13623 C4.86479751,22.68146 4.90872274,22.227 4.97196262,21.77533 C5.0046729,21.54903 5.03894081,21.32211 5.08442368,21.09736 C5.13146417,20.86765 5.17725857,20.65406 5.2470405,20.40327 L5.29563863,20.22719 L5.42242991,20.12799 C6.14299065,19.56503 6.91993769,19.13971 7.71028037,18.76275 C8.36074766,18.45864 9.02398754,18.18987 9.69252336,17.94528 C11.55919,12.7906 14.7685358,8.21965 18.9866044,5.03378 C23.3476636,1.74096 28.4760125,0 33.817134,0 C39.158567,0 44.2869159,1.74096 48.6476636,5.03378 C52.8654206,8.21965 56.0753894,12.7906 57.94081,17.94373 C58.6105919,18.18987 59.2722741,18.45678 59.9242991,18.76275 C60.7140187,19.13971 61.4915888,19.56503 62.2115265,20.12799 L62.3386293,20.22719 L62.3875389,20.40327 C62.45919,20.65406 62.5043614,20.86765 62.5498442,21.09736 C62.5959502,21.32211 62.6314642,21.54903 62.6619938,21.77533 C62.7258567,22.227 62.7713396,22.68146 62.7937695,23.13623 Z M12.7199377,17.41177 C11.929595,17.72859 11.1445483,18.05564 10.376947,18.41462 C9.60778816,18.7643 8.8517134,19.13971 8.12959502,19.55852 C7.46323988,19.94044 6.82398754,20.35956 6.25981308,20.83231 C6.23551402,20.9746 6.21277259,21.1296 6.19345794,21.27685 C6.16884735,21.48548 6.14454829,21.69442 6.12803738,21.9046 C6.09096573,22.32527 6.07601246,22.74935 6.07165109,23.17312 C6.06323988,24.02097 6.12180685,24.86913 6.22897196,25.70861 C6.34610592,26.55026 6.50062305,27.38664 6.72959502,28.19419 C6.84361371,28.59874 6.97040498,28.99833 7.11993769,29.38304 C7.19314642,29.57772 7.27445483,29.76682 7.35919003,29.95127 C7.40124611,30.04334 7.44517134,30.13417 7.48909657,30.22128 L7.54299065,30.32327 C7.60623053,30.35582 7.67133956,30.38775 7.73302181,30.4172 L8.11183801,30.59669 C8.32336449,30.69403 8.61433022,30.83136 8.85482866,30.93831 L8.894081,30.90266 L8.19314642,28.24255 C8.3411215,28.20225 9.67476636,27.85908 11.9719626,27.42384 C11.7866044,27.39005 11.5981308,27.34944 11.4143302,27.30573 C10.8925234,27.17646 10.3750779,27.01774 9.87632399,26.81717 C9.62897196,26.71208 9.38317757,26.59893 9.15109034,26.46749 C8.91838006,26.33481 8.68909657,26.18446 8.51183801,25.98389 C11.0352025,26.80415 16.2498442,26.43215 20.8859813,25.9563 C25.1261682,25.52106 29.3747664,25.23958 33.6464174,25.22997 C37.917757,25.23958 42.1700935,25.52106 46.4071651,25.9563 C51.0461059,26.43215 56.2610592,26.80415 58.7841121,25.98389 C58.6068536,26.18446 58.3778816,26.33481 58.1451713,26.46749 C57.9130841,26.59893 57.6672897,26.71208 57.4202492,26.81717 C56.9193146,27.01774 56.4037383,27.17646 55.8803738,27.30573 C55.8037383,27.3234 55.7258567,27.34138 55.6476636,27.3575 C58.1666667,27.82188 59.6330218,28.20039 59.7890966,28.24255 L59.117757,30.77618 C59.2529595,30.71635 59.3890966,30.65838 59.5221184,30.59669 L59.9015576,30.4172 C59.9632399,30.38775 60.0283489,30.35582 60.0915888,30.32327 L60.1436137,30.22128 C60.1890966,30.13417 60.2330218,30.04334 60.2753894,29.95127 C60.3601246,29.76682 60.4411215,29.57772 60.5161994,29.38304 C60.6641745,28.99833 60.7922118,28.59874 60.9043614,28.19419 C61.1339564,27.38664 61.2900312,26.55026 61.405296,25.70861 C61.5143302,24.86913 61.5713396,24.02097 61.5632399,23.17312 C61.5601246,22.74935 61.5439252,22.32527 61.5080997,21.9046 C61.4903427,21.69442 61.4672897,21.48548 61.4411215,21.27685 C61.4233645,21.1296 61.3987539,20.9746 61.3744548,20.83231 C60.8099688,20.35956 60.1713396,19.94044 59.5043614,19.55852 C58.7825545,19.13971 58.0267913,18.7643 57.2557632,18.41462 C56.4900312,18.05564 55.7034268,17.72859 54.9130841,17.41177 C54.517757,17.25305 54.1190031,17.09743 53.7193146,16.95018 C53.3211838,16.79673 52.917757,16.65134 52.5146417,16.50564 C53.3613707,16.64483 54.2009346,16.83703 55.0314642,17.04907 C55.5728972,17.18826 56.1130841,17.34543 56.6461059,17.5119 C52.8426791,7.61732 43.7470405,1.17459 33.817134,1.17459 C23.8853583,1.17459 14.7915888,7.61732 10.9884735,17.5119 C11.523053,17.34543 12.0613707,17.18826 12.6012461,17.04907 C13.4339564,16.83703 14.2725857,16.64483 15.1202492,16.50564 C14.7149533,16.65134 14.3133956,16.79673 13.9133956,16.95018 C13.5149533,17.09743 13.1168224,17.25305 12.7199377,17.41177 Z M35.3735202,53.60365 L35.8738318,54.1973 C35.8850467,54.21156 36.9975078,55.52875 38.3570093,56.87012 C39.2613707,57.76199 40.3535826,58.21335 41.6056075,58.21335 C42.0333333,58.21335 42.482243,58.15848 42.9358255,58.04967 C43.3566978,57.94768 43.8137072,57.83918 44.282243,57.72758 C45.9732087,57.3252 47.8884735,56.86857 48.817134,56.60972 C49.0006231,56.55795 49.2056075,56.51114 49.4214953,56.46216 C50.6573209,56.1782 52.3517134,55.78636 53.2492212,53.99673 C53.9242991,52.65381 54.8345794,50.91068 55.5093458,49.63317 C54.9242991,49.90163 54.3109034,50.19272 53.8750779,50.42088 C53.2037383,50.7718 52.3242991,50.94168 51.1875389,50.94168 C50.5115265,50.94168 49.8476636,50.88526 49.1127726,50.82016 C47.6445483,50.68593 45.1598131,50.39515 45.1342679,50.39174 L44.9439252,50.37066 L44.794081,50.251 C44.7716511,50.23488 42.5943925,48.50849 40.8345794,47.13147 C40.7632399,47.07319 40.6984424,47.01987 40.6398754,46.9712 C40.4545171,46.81403 40.4545171,46.81403 40.3439252,46.81403 C39.7794393,46.81403 38.1392523,47.32057 34.5451713,48.42913 L34.3246106,48.49888 L34.1080997,48.41766 C34.0834891,48.4096 31.7258567,47.53943 28.9003115,47.53943 C28.6691589,47.53943 28.4386293,47.54532 28.2140187,47.55679 C27.9308411,47.57136 26.3426791,48.32187 24.3115265,51.51952 L24.1797508,51.72474 L23.9470405,51.79914 C23.9133956,51.81061 20.4174455,52.93374 16.7102804,53.98867 L16.4694704,54.05656 L16.2417445,53.95116 C16.2174455,53.94155 14.7669782,53.27195 13.3866044,52.64048 C14.1395639,53.74718 15.1021807,55.12761 15.9492212,56.21044 C17.4286604,58.10671 19.294081,59.85883 22.8694704,59.85883 C23.3180685,59.85883 23.794704,59.83124 24.2841121,59.77606 C27.9211838,59.36686 28.8579439,59.20194 29.3619938,59.11452 C29.5323988,59.08538 29.6676012,59.06089 29.8401869,59.04012 C29.8676012,59.03671 32.8464174,58.65355 33.682243,56.78766 C34.5439252,54.87062 34.717757,54.41399 34.7242991,54.39663 L35.0286604,53.58939 C35.0286604,53.58939 35.0663551,53.38014 35.1280374,53.31535 L35.129595,53.3169 L35.135514,53.32186 C35.2314642,53.39006 35.3735202,53.60365 35.3735202,53.60365 L35.3735202,53.60365 Z" id="Fill-43" fill="#292C2D"></path>
            </g>
            <polyline id="Fill-45" fill="#292C2D" points="80.1869159 23.22706 72.8781931 23.22706 72.8781931 19.45622 91.9423676 19.45622 91.9423676 23.22706 84.6725857 23.22706 84.6725857 44.62264 80.1869159 44.62264 80.1869159 23.22706"></polyline>
            <path d="M91.54081,25.72845 L95.2146417,25.72845 L95.523676,29.07614 L95.6785047,29.07614 C97.0320872,26.6135 99.0426791,25.26686 101.053894,25.26686 C102.020561,25.26686 102.638941,25.38218 103.219315,25.65157 L102.445794,29.49929 C101.788162,29.30709 101.28567,29.19177 100.47352,29.19177 C98.9654206,29.19177 97.1479751,30.23089 95.9878505,33.07824 L95.9878505,44.62264 L91.54081,44.62264 L91.54081,25.72845" id="Fill-46" fill="#292C2D"></path>
            <path d="M111.223676,41.62091 C112.770405,41.62091 113.96947,40.85149 115.361371,39.54329 L115.361371,35.31024 C110.21838,35.96465 108.516822,37.31129 108.516822,39.19671 C108.516822,40.88993 109.638006,41.62091 111.223676,41.62091 Z M115.361371,32.53946 C115.322741,30.53872 114.471963,28.8455 111.919938,28.8455 C110.024922,28.8455 108.246106,29.6918 106.583178,30.69248 L104.95919,27.7295 C107.047352,26.42099 109.715576,25.26686 112.731776,25.26686 C117.488474,25.26686 119.808723,28.15265 119.808723,33.42451 L119.808723,44.62264 L116.17352,44.62264 L115.825545,42.5444 L115.709657,42.5444 C114.0081,43.96854 112.074455,45.08423 109.831776,45.08423 C106.505919,45.08423 104.18567,42.85254 104.18567,39.54329 C104.18567,35.50275 107.588785,33.38607 115.361371,32.53946 L115.361371,32.53946 Z" id="Fill-47" fill="#292C2D"></path>
            <path d="M121.080997,25.72845 L125.605607,25.72845 L128.621807,35.54119 C129.124299,37.38817 129.704673,39.31203 130.207477,41.23651 L130.361994,41.23651 C130.903115,39.31203 131.44486,37.38817 131.986293,35.54119 L135.002181,25.72845 L139.294704,25.72845 L132.837072,44.62264 L127.693769,44.62264 L121.080997,25.72845" id="Fill-48" fill="#292C2D"></path>
            <path d="M141.464486,44.62264 L145.911526,44.62264 L145.911526,25.72845 L141.464486,25.72845 L141.464486,44.62264 Z M140.961682,19.91781 C140.961682,18.4171 142.121495,17.37798 143.707165,17.37798 C145.292835,17.37798 146.452648,18.4171 146.452648,19.91781 C146.452648,21.38008 145.292835,22.4192 143.707165,22.4192 C142.121495,22.4192 140.961682,21.38008 140.961682,19.91781 L140.961682,19.91781 Z" id="Fill-49" fill="#292C2D"></path>
            <path d="M150.547975,39.62017 C152.249533,40.92837 153.873832,41.73654 155.807165,41.73654 C157.857009,41.73654 158.823676,40.77461 158.823676,39.46641 C158.823676,37.88851 156.773832,37.19597 154.76324,36.42624 C152.249533,35.50275 149.426791,34.07892 149.426791,30.92374 C149.426791,27.61387 152.095016,25.26686 156.348598,25.26686 C158.978193,25.26686 161.104984,26.34411 162.651713,27.53699 L160.602492,30.23089 C159.287539,29.26865 157.934268,28.61424 156.426168,28.61424 C154.531153,28.61424 153.641433,29.49929 153.641433,30.69248 C153.641433,32.15475 155.53676,32.77072 157.585981,33.50139 C160.176947,34.46363 163.038629,35.69495 163.038629,39.23515 C163.038629,42.46752 160.447352,45.08423 155.652648,45.08423 C153.061682,45.08423 150.316199,43.96854 148.460125,42.46752 L150.547975,39.62017" id="Fill-50" fill="#292C2D"></path>
            <path d="M184.84891,18.99432 C187.942368,18.99432 190.455763,20.49503 192.041433,22.18825 L189.566355,24.95872 C188.251402,23.68896 186.820872,22.88079 184.887539,22.88079 C180.749844,22.88079 177.771963,26.34411 177.771963,32.00099 C177.771963,37.73475 180.517445,41.19776 184.732399,41.19776 C186.975389,41.19776 188.638318,40.27396 190.069159,38.69668 L192.544237,41.42871 C190.494393,43.77603 187.864798,45.08423 184.65514,45.08423 C178.236137,45.08423 173.170405,40.46678 173.170405,32.11631 C173.170405,23.88147 178.352025,18.99432 184.84891,18.99432" id="Fill-51" fill="#292C2D"></path>
            <polygon id="Fill-52" fill="#292C2D" points="195.286293 44.62264 199.771963 44.62264 199.771963 19.45622 195.286293 19.45622"></polygon>
        </g>
    </g>
</svg>