<?xml version="1.0" encoding="UTF-8"?>
<svg width="201px" height="58px" viewBox="0 0 201 58" version="1.1" xmlns="http://www.w3.org/2000/svg" xmlns:xlink="http://www.w3.org/1999/xlink">
    <!-- Generator: Sketch 45 (43475) - http://www.bohemiancoding.com/sketch -->
    <title>trello</title>
    <desc>Created with Sketch.</desc>
    <defs>
        <linearGradient x1="50%" y1="0%" x2="50%" y2="100%" id="linearGradient-1">
            <stop stop-color="#0091E6" offset="0%"></stop>
            <stop stop-color="#0079BF" offset="100%"></stop>
        </linearGradient>
    </defs>
    <g id="Page-1" stroke="none" stroke-width="1" fill="none" fill-rule="evenodd">
        <g id="trello-logo-blue" transform="translate(1.000000, 0.000000)" fill-rule="nonzero">
            <path d="M161.07501,42.7114047 C158.019825,43.9629088 155.608918,48.2866676 151.942201,50.7441418 C151.714833,50.8965266 151.487464,50.972719 151.335885,50.972719 C151.032727,50.972719 150.65378,50.6679494 150.65378,49.2964861 C150.65378,44.572557 152.169569,42.2867848 153.45799,38.934319 C157.929569,27.276881 165.584306,17.2956759 172.405359,6.40016203 C172.935885,5.56204557 173.239043,4.64773671 173.239043,3.65723544 C173.239043,2.81911899 172.935885,2.13338734 172.556938,1.29527089 C172.25378,0.609539241 170.889569,0 169.37378,0 C168.540096,0 167.782201,0.0761924051 166.796938,0.0761924051 C163.234833,0.0761924051 162.476938,5.33346835 161.643254,6.70493165 C155.959043,16.3813671 149.441148,28.3435747 146.106411,36.8009316 C145.375144,38.6968584 144.585241,40.5927852 143.98484,42.5386031 C140.689446,43.4979328 138.220683,48.1560284 134.359043,50.7441418 C134.131675,50.8965266 133.904306,50.972719 133.752727,50.972719 C133.449569,50.972719 133.070622,50.6679494 133.070622,49.2964861 C133.070622,44.572557 134.586411,42.2867848 135.874833,38.934319 C140.346411,27.276881 148.001148,17.2956759 154.822201,6.40016203 C155.352727,5.56204557 155.655885,4.64773671 155.655885,3.65723544 C155.655885,2.81911899 155.352727,2.13338734 154.97378,1.29527089 C154.670622,0.609539241 153.306411,0 151.790622,0 C150.956938,0 150.199043,0.0761924051 149.21378,0.0761924051 C145.651675,0.0761924051 144.89378,5.33346835 144.060096,6.70493165 C138.375885,16.3813671 131.85799,28.3435747 128.523254,36.8009316 C128.258143,37.4882728 127.985326,38.1756141 127.716626,38.8653326 C127.63365,38.9098879 127.548918,38.9582046 127.462201,39.0105114 C123.596938,41.2962835 120.33799,45.334481 115.639043,48.0774076 C114.729569,48.6107544 111.925359,50.591757 109.651675,50.591757 C109.121148,50.591757 108.666411,50.4393722 108.211675,50.2107949 C107.529569,49.9060253 106.847464,48.4583696 106.847464,48.0012152 C106.847464,47.6202532 106.923254,47.5440608 107.681148,47.0869063 C114.350622,43.0487089 119.807464,37.2580861 124.506411,31.4674633 C126.249569,29.3340759 128.523254,25.1434937 128.523254,22.0957975 C128.523254,20.1147949 127.841148,17.8290228 125.491675,16.9909063 C123.824306,16.3813671 121.929569,16.0765975 120.41378,16.0765975 C116.396938,16.0765975 113.441148,17.9052152 111.77378,19.6576405 C110.076307,21.4794422 108.434376,23.3501017 106.908926,25.2865192 C105.315073,23.9031664 103.066961,23.3148759 100.935885,23.3148759 C98.4348325,23.3148759 93.7358852,26.4387646 91.310622,28.2673823 C90.9316746,28.5721519 90.7043062,28.7245367 90.5527273,28.7245367 C90.4769378,28.7245367 90.4011483,28.6483443 90.4011483,28.4959595 C90.4011483,28.4197671 90.5527273,27.7340354 90.5527273,26.514957 C90.5527273,25.4482633 90.3253589,24.0768 89.3400957,22.4005671 C89.1127273,22.0196051 87.7485167,21.1814886 86.0811483,21.1814886 C84.0348325,21.1814886 82.1400957,22.1719899 82.1400957,23.2386835 C82.1400957,24.0006076 82.822201,24.3053772 82.822201,24.9911089 C82.822201,25.3720709 82.5190431,27.1244962 82.0643062,28.8007291 C80.7758852,33.677043 79.1843062,38.4771646 77.5169378,43.2772861 C76.6074641,45.9440203 73.5758852,48.3059848 73.5758852,51.2012962 C73.5758852,52.1156051 74.182201,53.3346835 75.0158852,54.2489924 C76.3800957,55.7728405 77.2137799,56.3061873 78.4264115,56.3061873 C78.9569378,56.3061873 79.5632536,56.1538025 80.0937799,55.6966481 C81.230622,54.7061468 81.8369378,53.7156456 82.1400957,52.3441823 C84.110622,43.3534785 89.7948325,37.2580861 96.0853589,33.2198886 C98.2074641,31.8484253 101.087464,30.4007696 101.466411,30.4007696 C101.854985,30.4007696 102.462704,30.5810231 103.07507,30.7566976 C101.316632,33.6400938 99.8918514,36.6809156 98.9653589,39.9248203 C98.662201,40.9915139 98.510622,41.9820152 98.510622,43.0487089 C98.510622,44.8011342 98.8895694,46.6297519 99.4958852,48.3821772 C100.329569,50.8203342 101.69378,52.9537215 103.588517,53.9442228 C107.074833,55.7728405 109.575885,56.7633418 111.849569,56.7633418 C113.13799,56.7633418 114.123254,56.5347646 115.184306,55.9252253 C120.165711,53.0918147 123.219829,50.9422396 125.425157,49.0329503 C125.485626,50.9688043 125.865207,52.041316 127.234833,53.4870684 C128.599043,54.9347241 130.721148,56.2299949 133.525359,56.8395342 C133.980096,56.9157266 134.434833,56.991919 134.889569,56.991919 C138.097966,56.991919 141.185633,54.3702896 143.566525,51.7714042 C143.842187,52.3385275 144.242775,52.8798813 144.81799,53.4870684 C146.182201,54.9347241 148.304306,56.2299949 151.108517,56.8395342 C151.563254,56.9157266 152.01799,56.991919 152.472727,56.991919 C156.231045,56.991919 159.823699,53.3945744 162.308699,50.4503741 C163.13691,52.1725204 165.451326,53.8751857 168.236938,55.2394937 C168.994833,55.6204557 169.904306,55.8490329 170.73799,55.8490329 C173.996938,55.8490329 176.346411,53.1822987 178.165359,51.2012962 C182.864306,46.0202127 185.441148,39.6200506 187.411675,31.5436557 C187.563254,30.9341165 187.790622,30.7055392 188.09378,30.7055392 C188.851675,30.7055392 189.836938,30.7055392 190.89799,30.5531544 C192.944306,30.2483848 194.535885,29.5626532 196.430622,29.2578835 C197.567464,29.0293063 197.415885,28.6483443 198.476938,28.2673823 C199.234833,27.9626127 199.841148,27.657843 199.841148,26.895919 C199.841148,25.6006481 197.491675,24.2291848 193.929569,24.2291848 C191.125359,24.2291848 189.45799,24.457762 188.321148,24.457762 C186.57799,24.457762 186.123254,23.9244152 184.986411,20.9529114 C184.986411,20.9529114 186.123254,23.9244152 184.986411,20.9529114 C184.759043,20.3433722 184.531675,20.0386025 183.849569,19.4290633 C182.25799,18.0576 180.287464,17.6004456 178.695885,17.6004456 C174.906411,17.6004456 171.647464,21.4862582 169.37378,24.7625316 C168.843254,25.5244557 168.085359,26.1339949 167.554833,26.9721114 C164.432819,31.6800281 161.443663,36.9889811 161.07501,42.7114047 Z M64.1779904,16.7623291 C66.0727273,16.7623291 67.1337799,16.6099443 67.3611483,16.6099443 C67.5885167,16.6099443 67.7400957,16.6861367 67.7400957,16.9147139 C67.7400957,17.0670987 67.6643062,17.2956759 67.1337799,18.438562 C62.510622,28.4197671 59.3274641,38.553357 56.5232536,49.7536405 C56.4474641,50.0584101 56.2200957,51.2012962 56.2200957,52.3441823 C56.2200957,53.4108759 56.5232536,54.553762 57.5843062,55.1633013 C59.630622,56.3823797 61.2979904,56.9157266 62.4348325,56.9157266 C64.102201,56.9157266 64.9358852,55.8490329 64.9358852,54.0966076 C64.9358852,52.5727595 65.0116746,50.972719 65.2390431,49.7536405 C67.3611483,38.553357 70.5443062,29.7912304 75.470622,20.6481418 C77.8200957,16.3051747 78.1232536,16.0765975 78.1232536,15.6956354 C78.1232536,15.5432506 78.0474641,15.3146734 77.8958852,15.0860962 C80.9274641,14.4003646 84.5653589,13.9432101 87.9000957,13.9432101 C88.2790431,13.9432101 89.7948325,14.476557 90.022201,14.7051342 C90.5527273,15.238481 91.0832536,15.7718278 91.9927273,15.7718278 C92.750622,15.7718278 94.0390431,15.238481 94.4937799,14.9337114 C95.5548325,14.1717873 96.0853589,13.3336709 96.0853589,11.9622076 C96.0853589,10.6669367 91.310622,7.4668557 87.9758852,7.4668557 C83.8832536,7.4668557 80.1695694,8.00020253 76.6832536,8.68593418 C75.1674641,8.9907038 69.710622,9.82882025 65.7695694,9.82882025 C61.9800957,9.82882025 62.2074641,9.29547342 60.6158852,9.29547342 C59.7064115,9.29547342 59.2516746,9.75262785 58.8727273,10.1335899 C58.4937799,10.5145519 58.2664115,12.0384 58.2664115,13.4098633 C58.2664115,14.0955949 58.2664115,14.6289418 58.6453589,15.0860962 C59.782201,16.4575595 61.9800957,16.7623291 64.1779904,16.7623291 C64.1779904,16.7623291 61.9800957,16.7623291 64.1779904,16.7623291 Z M120.33799,22.9339139 C120.33799,23.6196456 120.110622,24.0768 119.201148,25.5244557 C118.291675,26.9721114 118.670622,26.9721114 117.53378,28.4959595 C115.335885,31.4674633 112.607464,34.4389671 109.045359,37.7152405 C108.060096,38.6295494 107.908517,38.6295494 107.756938,38.6295494 C107.681148,38.6295494 107.529569,38.553357 107.529569,38.4009722 C107.529569,38.1723949 107.605359,37.8676253 108.363254,36.2675848 C110.712727,31.3150785 113.592727,28.0388051 116.775885,24.8387241 C118.519043,23.0862987 119.580096,22.4767595 119.959043,22.4767595 C120.186411,22.4767595 120.33799,22.5529519 120.33799,22.9339139 C120.33799,22.9339139 120.33799,22.5529519 120.33799,22.9339139 Z M178.620096,24.9149165 C178.695885,24.9149165 178.771675,24.9911089 178.847464,25.1434937 C178.923254,25.3720709 179.074833,25.6006481 179.45378,25.9054177 C179.756938,26.1339949 179.756938,27.2006886 179.756938,28.0388051 C179.756938,35.4294684 175.588517,41.5248608 171.495885,47.6964456 C170.586411,49.0679089 170.055885,49.2964861 169.601148,49.2964861 C169.222201,49.2964861 168.615885,48.3059848 168.388517,47.6964456 C168.085359,46.8583291 168.009569,45.8678278 168.009569,45.4868658 C168.009569,39.5438582 173.61799,30.7055392 177.331675,25.8292253 C177.93799,24.9911089 178.392727,24.9149165 178.620096,24.9149165 C178.620096,24.9149165 178.392727,24.9149165 178.620096,24.9149165 Z" id="Type" fill="url(#linearGradient-1)"></path>
            <g id="Mark" transform="translate(0.000000, 8.417722)">
                <rect id="Board" fill="url(#linearGradient-1)" x="0" y="0" width="47.84689" height="48.1012658" rx="5.98086124"></rect>
                <rect id="Right-List" fill="#FFFFFF" x="27.0334928" y="6.25316456" width="14.5933014" height="21.0443038" rx="2.8708134"></rect>
                <rect id="Left-List" fill="#FFFFFF" x="6.22009569" y="6.25316456" width="14.5933014" height="33.0696203" rx="2.8708134"></rect>
            </g>
        </g>
    </g>
</svg>